  999
file created by SolveSpace
  0
SECTION
  2
HEADER
  9
$ACADVER
  1
AC1006
  9
$ANGDIR
  70
0
  9
$AUNITS
  70
0
  9
$AUPREC
  70
0
  9
$INSBASE
  10
0.0
  20
0.0
  30
0.0
  9
$EXTMIN
  10
0.0
  20
0.0
  9
$EXTMAX
  10
10000.0
  20
10000.0
  0
ENDSEC
  0
SECTION
  2
ENTITIES
  0
LINE
  8
0
  10
1.203089
  20
-26.924663
  30
0.000000
  11
1.203089
  21
20.825337
  31
0.000000
  0
LINE
  8
0
  10
1.203089
  20
20.825337
  30
0.000000
  11
-46.296912
  21
20.825337
  31
0.000000
  0
LINE
  8
0
  10
-46.296912
  20
20.825337
  30
0.000000
  11
-46.296912
  21
-26.924663
  31
0.000000
  0
LINE
  8
0
  10
-46.296912
  20
-26.924663
  30
0.000000
  11
1.203089
  21
-26.924663
  31
0.000000
  0
ARC
  8
0
  10
-43.646127
  20
18.736826
  30
0.000000
  40
0.125000
  50
45.000000
  51
135.000000
  0
ARC
  8
0
  10
-43.646127
  20
18.736826
  30
0.000000
  40
0.125000
  50
-45.000000
  51
45.000000
  0
LINE
  8
0
  10
-43.557738
  20
18.648438
  30
0.000000
  11
-43.557738
  21
17.033487
  31
0.000000
  0
ARC
  8
0
  10
-43.646127
  20
16.945099
  30
0.000000
  40
0.125000
  50
-45.000000
  51
45.000000
  0
ARC
  8
0
  10
-43.646127
  20
16.945099
  30
0.000000
  40
0.125000
  50
-135.000000
  51
-45.000000
  0
LINE
  8
0
  10
-43.734515
  20
16.856710
  30
0.000000
  11
-44.109308
  21
16.856710
  31
0.000000
  0
ARC
  8
0
  10
-44.197696
  20
16.945099
  30
0.000000
  40
0.125000
  50
-135.000000
  51
-45.000000
  0
ARC
  8
0
  10
-44.197696
  20
16.945099
  30
0.000000
  40
0.125000
  50
135.000000
  51
-135.000000
  0
LINE
  8
0
  10
-44.286085
  20
17.033487
  30
0.000000
  11
-44.286085
  21
18.648438
  31
0.000000
  0
ARC
  8
0
  10
-44.197696
  20
18.736826
  30
0.000000
  40
0.125000
  50
135.000000
  51
-135.000000
  0
ARC
  8
0
  10
-44.197696
  20
18.736826
  30
0.000000
  40
0.125000
  50
45.000000
  51
135.000000
  0
LINE
  8
0
  10
-44.109308
  20
18.825214
  30
0.000000
  11
-43.734515
  21
18.825214
  31
0.000000
  0
ARC
  8
0
  10
-38.896127
  20
18.736826
  30
0.000000
  40
0.125000
  50
45.000000
  51
135.000000
  0
ARC
  8
0
  10
-38.896127
  20
18.736826
  30
0.000000
  40
0.125000
  50
-45.000000
  51
45.000000
  0
LINE
  8
0
  10
-38.807738
  20
18.648438
  30
0.000000
  11
-38.807738
  21
17.033487
  31
0.000000
  0
ARC
  8
0
  10
-38.896127
  20
16.945099
  30
0.000000
  40
0.125000
  50
-45.000000
  51
45.000000
  0
ARC
  8
0
  10
-38.896127
  20
16.945099
  30
0.000000
  40
0.125000
  50
-135.000000
  51
-45.000000
  0
LINE
  8
0
  10
-38.984515
  20
16.856710
  30
0.000000
  11
-39.359308
  21
16.856710
  31
0.000000
  0
ARC
  8
0
  10
-39.447696
  20
16.945099
  30
0.000000
  40
0.125000
  50
-135.000000
  51
-45.000000
  0
ARC
  8
0
  10
-39.447696
  20
16.945099
  30
0.000000
  40
0.125000
  50
135.000000
  51
-135.000000
  0
LINE
  8
0
  10
-39.536085
  20
17.033487
  30
0.000000
  11
-39.536085
  21
18.648438
  31
0.000000
  0
ARC
  8
0
  10
-39.447696
  20
18.736826
  30
0.000000
  40
0.125000
  50
135.000000
  51
-135.000000
  0
ARC
  8
0
  10
-39.447696
  20
18.736826
  30
0.000000
  40
0.125000
  50
45.000000
  51
135.000000
  0
LINE
  8
0
  10
-39.359308
  20
18.825214
  30
0.000000
  11
-38.984515
  21
18.825214
  31
0.000000
  0
ARC
  8
0
  10
-0.896126
  20
18.736826
  30
0.000000
  40
0.125000
  50
45.000000
  51
135.000000
  0
ARC
  8
0
  10
-0.896126
  20
18.736826
  30
0.000000
  40
0.125000
  50
-45.000000
  51
45.000000
  0
LINE
  8
0
  10
-0.807738
  20
18.648438
  30
0.000000
  11
-0.807738
  21
17.033487
  31
0.000000
  0
ARC
  8
0
  10
-0.896126
  20
16.945099
  30
0.000000
  40
0.125000
  50
-45.000000
  51
45.000000
  0
ARC
  8
0
  10
-0.896126
  20
16.945099
  30
0.000000
  40
0.125000
  50
-135.000000
  51
-45.000000
  0
LINE
  8
0
  10
-0.984514
  20
16.856710
  30
0.000000
  11
-1.359307
  21
16.856710
  31
0.000000
  0
ARC
  8
0
  10
-1.447696
  20
16.945099
  30
0.000000
  40
0.125000
  50
-135.000000
  51
-45.000000
  0
ARC
  8
0
  10
-1.447696
  20
16.945099
  30
0.000000
  40
0.125000
  50
135.000000
  51
-135.000000
  0
LINE
  8
0
  10
-1.536084
  20
17.033487
  30
0.000000
  11
-1.536084
  21
18.648438
  31
0.000000
  0
ARC
  8
0
  10
-1.447696
  20
18.736826
  30
0.000000
  40
0.125000
  50
135.000000
  51
-135.000000
  0
ARC
  8
0
  10
-1.447696
  20
18.736826
  30
0.000000
  40
0.125000
  50
45.000000
  51
135.000000
  0
LINE
  8
0
  10
-1.359307
  20
18.825214
  30
0.000000
  11
-0.984514
  21
18.825214
  31
0.000000
  0
ARC
  8
0
  10
-34.146126
  20
18.736826
  30
0.000000
  40
0.125000
  50
45.000000
  51
135.000000
  0
ARC
  8
0
  10
-34.146126
  20
18.736826
  30
0.000000
  40
0.125000
  50
-45.000000
  51
45.000000
  0
LINE
  8
0
  10
-34.057738
  20
18.648438
  30
0.000000
  11
-34.057738
  21
17.033487
  31
0.000000
  0
ARC
  8
0
  10
-34.146126
  20
16.945099
  30
0.000000
  40
0.125000
  50
-45.000000
  51
45.000000
  0
ARC
  8
0
  10
-34.146126
  20
16.945099
  30
0.000000
  40
0.125000
  50
-135.000000
  51
-45.000000
  0
LINE
  8
0
  10
-34.234515
  20
16.856710
  30
0.000000
  11
-34.609308
  21
16.856710
  31
0.000000
  0
ARC
  8
0
  10
-34.697696
  20
16.945099
  30
0.000000
  40
0.125000
  50
-135.000000
  51
-45.000000
  0
ARC
  8
0
  10
-34.697696
  20
16.945099
  30
0.000000
  40
0.125000
  50
135.000000
  51
-135.000000
  0
LINE
  8
0
  10
-34.786085
  20
17.033487
  30
0.000000
  11
-34.786085
  21
18.648438
  31
0.000000
  0
ARC
  8
0
  10
-34.697696
  20
18.736826
  30
0.000000
  40
0.125000
  50
135.000000
  51
-135.000000
  0
ARC
  8
0
  10
-34.697696
  20
18.736826
  30
0.000000
  40
0.125000
  50
45.000000
  51
135.000000
  0
LINE
  8
0
  10
-34.609308
  20
18.825214
  30
0.000000
  11
-34.234515
  21
18.825214
  31
0.000000
  0
ARC
  8
0
  10
-29.396126
  20
18.736826
  30
0.000000
  40
0.125000
  50
45.000000
  51
135.000000
  0
ARC
  8
0
  10
-29.396126
  20
18.736826
  30
0.000000
  40
0.125000
  50
-45.000000
  51
45.000000
  0
LINE
  8
0
  10
-29.307738
  20
18.648438
  30
0.000000
  11
-29.307738
  21
17.033487
  31
0.000000
  0
ARC
  8
0
  10
-29.396126
  20
16.945099
  30
0.000000
  40
0.125000
  50
-45.000000
  51
45.000000
  0
ARC
  8
0
  10
-29.396126
  20
16.945099
  30
0.000000
  40
0.125000
  50
-135.000000
  51
-45.000000
  0
LINE
  8
0
  10
-29.484515
  20
16.856710
  30
0.000000
  11
-29.859308
  21
16.856710
  31
0.000000
  0
ARC
  8
0
  10
-29.947696
  20
16.945099
  30
0.000000
  40
0.125000
  50
-135.000000
  51
-45.000000
  0
ARC
  8
0
  10
-29.947696
  20
16.945099
  30
0.000000
  40
0.125000
  50
135.000000
  51
-135.000000
  0
LINE
  8
0
  10
-30.036084
  20
17.033487
  30
0.000000
  11
-30.036084
  21
18.648438
  31
0.000000
  0
ARC
  8
0
  10
-29.947696
  20
18.736826
  30
0.000000
  40
0.125000
  50
135.000000
  51
-135.000000
  0
ARC
  8
0
  10
-29.947696
  20
18.736826
  30
0.000000
  40
0.125000
  50
45.000000
  51
135.000000
  0
LINE
  8
0
  10
-29.859308
  20
18.825214
  30
0.000000
  11
-29.484515
  21
18.825214
  31
0.000000
  0
ARC
  8
0
  10
-24.646126
  20
18.736826
  30
0.000000
  40
0.125000
  50
45.000000
  51
135.000000
  0
ARC
  8
0
  10
-24.646126
  20
18.736826
  30
0.000000
  40
0.125000
  50
-45.000000
  51
45.000000
  0
LINE
  8
0
  10
-24.557738
  20
18.648438
  30
0.000000
  11
-24.557738
  21
17.033487
  31
0.000000
  0
ARC
  8
0
  10
-24.646126
  20
16.945099
  30
0.000000
  40
0.125000
  50
-45.000000
  51
45.000000
  0
ARC
  8
0
  10
-24.646126
  20
16.945099
  30
0.000000
  40
0.125000
  50
-135.000000
  51
-45.000000
  0
LINE
  8
0
  10
-24.734515
  20
16.856710
  30
0.000000
  11
-25.109308
  21
16.856710
  31
0.000000
  0
ARC
  8
0
  10
-25.197696
  20
16.945099
  30
0.000000
  40
0.125000
  50
-135.000000
  51
-45.000000
  0
ARC
  8
0
  10
-25.197696
  20
16.945099
  30
0.000000
  40
0.125000
  50
135.000000
  51
-135.000000
  0
LINE
  8
0
  10
-25.286084
  20
17.033487
  30
0.000000
  11
-25.286084
  21
18.648438
  31
0.000000
  0
ARC
  8
0
  10
-25.197696
  20
18.736826
  30
0.000000
  40
0.125000
  50
135.000000
  51
-135.000000
  0
ARC
  8
0
  10
-25.197696
  20
18.736826
  30
0.000000
  40
0.125000
  50
45.000000
  51
135.000000
  0
LINE
  8
0
  10
-25.109308
  20
18.825214
  30
0.000000
  11
-24.734515
  21
18.825214
  31
0.000000
  0
ARC
  8
0
  10
-19.896126
  20
18.736826
  30
0.000000
  40
0.125000
  50
45.000000
  51
135.000000
  0
ARC
  8
0
  10
-19.896126
  20
18.736826
  30
0.000000
  40
0.125000
  50
-45.000000
  51
45.000000
  0
LINE
  8
0
  10
-19.807738
  20
18.648438
  30
0.000000
  11
-19.807738
  21
17.033487
  31
0.000000
  0
ARC
  8
0
  10
-19.896126
  20
16.945099
  30
0.000000
  40
0.125000
  50
-45.000000
  51
45.000000
  0
ARC
  8
0
  10
-19.896126
  20
16.945099
  30
0.000000
  40
0.125000
  50
-135.000000
  51
-45.000000
  0
LINE
  8
0
  10
-19.984515
  20
16.856710
  30
0.000000
  11
-20.359308
  21
16.856710
  31
0.000000
  0
ARC
  8
0
  10
-20.447696
  20
16.945099
  30
0.000000
  40
0.125000
  50
-135.000000
  51
-45.000000
  0
ARC
  8
0
  10
-20.447696
  20
16.945099
  30
0.000000
  40
0.125000
  50
135.000000
  51
-135.000000
  0
LINE
  8
0
  10
-20.536084
  20
17.033487
  30
0.000000
  11
-20.536084
  21
18.648438
  31
0.000000
  0
ARC
  8
0
  10
-20.447696
  20
18.736826
  30
0.000000
  40
0.125000
  50
135.000000
  51
-135.000000
  0
ARC
  8
0
  10
-20.447696
  20
18.736826
  30
0.000000
  40
0.125000
  50
45.000000
  51
135.000000
  0
LINE
  8
0
  10
-20.359308
  20
18.825214
  30
0.000000
  11
-19.984515
  21
18.825214
  31
0.000000
  0
ARC
  8
0
  10
-15.146126
  20
18.736826
  30
0.000000
  40
0.125000
  50
45.000000
  51
135.000000
  0
ARC
  8
0
  10
-15.146126
  20
18.736826
  30
0.000000
  40
0.125000
  50
-45.000000
  51
45.000000
  0
LINE
  8
0
  10
-15.057738
  20
18.648438
  30
0.000000
  11
-15.057738
  21
17.033487
  31
0.000000
  0
ARC
  8
0
  10
-15.146126
  20
16.945099
  30
0.000000
  40
0.125000
  50
-45.000000
  51
45.000000
  0
ARC
  8
0
  10
-15.146126
  20
16.945099
  30
0.000000
  40
0.125000
  50
-135.000000
  51
-45.000000
  0
LINE
  8
0
  10
-15.234515
  20
16.856710
  30
0.000000
  11
-15.609308
  21
16.856710
  31
0.000000
  0
ARC
  8
0
  10
-15.697696
  20
16.945099
  30
0.000000
  40
0.125000
  50
-135.000000
  51
-45.000000
  0
ARC
  8
0
  10
-15.697696
  20
16.945099
  30
0.000000
  40
0.125000
  50
135.000000
  51
-135.000000
  0
LINE
  8
0
  10
-15.786084
  20
17.033487
  30
0.000000
  11
-15.786084
  21
18.648438
  31
0.000000
  0
ARC
  8
0
  10
-15.697696
  20
18.736826
  30
0.000000
  40
0.125000
  50
135.000000
  51
-135.000000
  0
ARC
  8
0
  10
-15.697696
  20
18.736826
  30
0.000000
  40
0.125000
  50
45.000000
  51
135.000000
  0
LINE
  8
0
  10
-15.609308
  20
18.825214
  30
0.000000
  11
-15.234515
  21
18.825214
  31
0.000000
  0
ARC
  8
0
  10
-10.396126
  20
18.736826
  30
0.000000
  40
0.125000
  50
45.000000
  51
135.000000
  0
ARC
  8
0
  10
-10.396126
  20
18.736826
  30
0.000000
  40
0.125000
  50
-45.000000
  51
45.000000
  0
LINE
  8
0
  10
-10.307738
  20
18.648438
  30
0.000000
  11
-10.307738
  21
17.033487
  31
0.000000
  0
ARC
  8
0
  10
-10.396126
  20
16.945099
  30
0.000000
  40
0.125000
  50
-45.000000
  51
45.000000
  0
ARC
  8
0
  10
-10.396126
  20
16.945099
  30
0.000000
  40
0.125000
  50
-135.000000
  51
-45.000000
  0
LINE
  8
0
  10
-10.484514
  20
16.856710
  30
0.000000
  11
-10.859308
  21
16.856710
  31
0.000000
  0
ARC
  8
0
  10
-10.947696
  20
16.945099
  30
0.000000
  40
0.125000
  50
-135.000000
  51
-45.000000
  0
ARC
  8
0
  10
-10.947696
  20
16.945099
  30
0.000000
  40
0.125000
  50
135.000000
  51
-135.000000
  0
LINE
  8
0
  10
-11.036084
  20
17.033487
  30
0.000000
  11
-11.036084
  21
18.648438
  31
0.000000
  0
ARC
  8
0
  10
-10.947696
  20
18.736826
  30
0.000000
  40
0.125000
  50
135.000000
  51
-135.000000
  0
ARC
  8
0
  10
-10.947696
  20
18.736826
  30
0.000000
  40
0.125000
  50
45.000000
  51
135.000000
  0
LINE
  8
0
  10
-10.859308
  20
18.825214
  30
0.000000
  11
-10.484514
  21
18.825214
  31
0.000000
  0
ARC
  8
0
  10
-5.646126
  20
18.736826
  30
0.000000
  40
0.125000
  50
45.000000
  51
135.000000
  0
ARC
  8
0
  10
-5.646126
  20
18.736826
  30
0.000000
  40
0.125000
  50
-45.000000
  51
45.000000
  0
LINE
  8
0
  10
-5.557738
  20
18.648438
  30
0.000000
  11
-5.557738
  21
17.033487
  31
0.000000
  0
ARC
  8
0
  10
-5.646126
  20
16.945099
  30
0.000000
  40
0.125000
  50
-45.000000
  51
45.000000
  0
ARC
  8
0
  10
-5.646126
  20
16.945099
  30
0.000000
  40
0.125000
  50
-135.000000
  51
-45.000000
  0
LINE
  8
0
  10
-5.734514
  20
16.856710
  30
0.000000
  11
-6.109307
  21
16.856710
  31
0.000000
  0
ARC
  8
0
  10
-6.197696
  20
16.945099
  30
0.000000
  40
0.125000
  50
-135.000000
  51
-45.000000
  0
ARC
  8
0
  10
-6.197696
  20
16.945099
  30
0.000000
  40
0.125000
  50
135.000000
  51
-135.000000
  0
LINE
  8
0
  10
-6.286084
  20
17.033487
  30
0.000000
  11
-6.286084
  21
18.648438
  31
0.000000
  0
ARC
  8
0
  10
-6.197696
  20
18.736826
  30
0.000000
  40
0.125000
  50
135.000000
  51
-135.000000
  0
ARC
  8
0
  10
-6.197696
  20
18.736826
  30
0.000000
  40
0.125000
  50
45.000000
  51
135.000000
  0
LINE
  8
0
  10
-6.109307
  20
18.825214
  30
0.000000
  11
-5.734514
  21
18.825214
  31
0.000000
  0
ARC
  8
0
  10
-43.646127
  20
12.768076
  30
0.000000
  40
0.125000
  50
45.000000
  51
135.000000
  0
ARC
  8
0
  10
-43.646127
  20
12.768076
  30
0.000000
  40
0.125000
  50
-45.000000
  51
45.000000
  0
LINE
  8
0
  10
-43.557738
  20
12.679688
  30
0.000000
  11
-43.557738
  21
11.064737
  31
0.000000
  0
ARC
  8
0
  10
-43.646127
  20
10.976349
  30
0.000000
  40
0.125000
  50
-45.000000
  51
45.000000
  0
ARC
  8
0
  10
-43.646127
  20
10.976349
  30
0.000000
  40
0.125000
  50
-135.000000
  51
-45.000000
  0
LINE
  8
0
  10
-43.734515
  20
10.887960
  30
0.000000
  11
-44.109308
  21
10.887960
  31
0.000000
  0
ARC
  8
0
  10
-44.197696
  20
10.976349
  30
0.000000
  40
0.125000
  50
-135.000000
  51
-45.000000
  0
ARC
  8
0
  10
-44.197696
  20
10.976349
  30
0.000000
  40
0.125000
  50
135.000000
  51
-135.000000
  0
LINE
  8
0
  10
-44.286085
  20
11.064737
  30
0.000000
  11
-44.286085
  21
12.679688
  31
0.000000
  0
ARC
  8
0
  10
-44.197696
  20
12.768076
  30
0.000000
  40
0.125000
  50
135.000000
  51
-135.000000
  0
ARC
  8
0
  10
-44.197696
  20
12.768076
  30
0.000000
  40
0.125000
  50
45.000000
  51
135.000000
  0
LINE
  8
0
  10
-44.109308
  20
12.856464
  30
0.000000
  11
-43.734515
  21
12.856464
  31
0.000000
  0
ARC
  8
0
  10
-38.896127
  20
12.768076
  30
0.000000
  40
0.125000
  50
45.000000
  51
135.000000
  0
ARC
  8
0
  10
-38.896127
  20
12.768076
  30
0.000000
  40
0.125000
  50
-45.000000
  51
45.000000
  0
LINE
  8
0
  10
-38.807738
  20
12.679688
  30
0.000000
  11
-38.807738
  21
11.064737
  31
0.000000
  0
ARC
  8
0
  10
-38.896127
  20
10.976349
  30
0.000000
  40
0.125000
  50
-45.000000
  51
45.000000
  0
ARC
  8
0
  10
-38.896127
  20
10.976349
  30
0.000000
  40
0.125000
  50
-135.000000
  51
-45.000000
  0
LINE
  8
0
  10
-38.984515
  20
10.887960
  30
0.000000
  11
-39.359308
  21
10.887960
  31
0.000000
  0
ARC
  8
0
  10
-39.447696
  20
10.976349
  30
0.000000
  40
0.125000
  50
-135.000000
  51
-45.000000
  0
ARC
  8
0
  10
-39.447696
  20
10.976349
  30
0.000000
  40
0.125000
  50
135.000000
  51
-135.000000
  0
LINE
  8
0
  10
-39.536085
  20
11.064737
  30
0.000000
  11
-39.536085
  21
12.679688
  31
0.000000
  0
ARC
  8
0
  10
-39.447696
  20
12.768076
  30
0.000000
  40
0.125000
  50
135.000000
  51
-135.000000
  0
ARC
  8
0
  10
-39.447696
  20
12.768076
  30
0.000000
  40
0.125000
  50
45.000000
  51
135.000000
  0
LINE
  8
0
  10
-39.359308
  20
12.856464
  30
0.000000
  11
-38.984515
  21
12.856464
  31
0.000000
  0
ARC
  8
0
  10
-0.896126
  20
12.768076
  30
0.000000
  40
0.125000
  50
45.000000
  51
135.000000
  0
ARC
  8
0
  10
-0.896126
  20
12.768076
  30
0.000000
  40
0.125000
  50
-45.000000
  51
45.000000
  0
LINE
  8
0
  10
-0.807738
  20
12.679688
  30
0.000000
  11
-0.807738
  21
11.064737
  31
0.000000
  0
ARC
  8
0
  10
-0.896126
  20
10.976349
  30
0.000000
  40
0.125000
  50
-45.000000
  51
45.000000
  0
ARC
  8
0
  10
-0.896126
  20
10.976349
  30
0.000000
  40
0.125000
  50
-135.000000
  51
-45.000000
  0
LINE
  8
0
  10
-0.984514
  20
10.887960
  30
0.000000
  11
-1.359307
  21
10.887960
  31
0.000000
  0
ARC
  8
0
  10
-1.447696
  20
10.976349
  30
0.000000
  40
0.125000
  50
-135.000000
  51
-45.000000
  0
ARC
  8
0
  10
-1.447696
  20
10.976349
  30
0.000000
  40
0.125000
  50
135.000000
  51
-135.000000
  0
LINE
  8
0
  10
-1.536084
  20
11.064737
  30
0.000000
  11
-1.536084
  21
12.679688
  31
0.000000
  0
ARC
  8
0
  10
-1.447696
  20
12.768076
  30
0.000000
  40
0.125000
  50
135.000000
  51
-135.000000
  0
ARC
  8
0
  10
-1.447696
  20
12.768076
  30
0.000000
  40
0.125000
  50
45.000000
  51
135.000000
  0
LINE
  8
0
  10
-1.359307
  20
12.856464
  30
0.000000
  11
-0.984514
  21
12.856464
  31
0.000000
  0
ARC
  8
0
  10
-34.146126
  20
12.768076
  30
0.000000
  40
0.125000
  50
45.000000
  51
135.000000
  0
ARC
  8
0
  10
-34.146126
  20
12.768076
  30
0.000000
  40
0.125000
  50
-45.000000
  51
45.000000
  0
LINE
  8
0
  10
-34.057738
  20
12.679688
  30
0.000000
  11
-34.057738
  21
11.064737
  31
0.000000
  0
ARC
  8
0
  10
-34.146126
  20
10.976349
  30
0.000000
  40
0.125000
  50
-45.000000
  51
45.000000
  0
ARC
  8
0
  10
-34.146126
  20
10.976349
  30
0.000000
  40
0.125000
  50
-135.000000
  51
-45.000000
  0
LINE
  8
0
  10
-34.234515
  20
10.887960
  30
0.000000
  11
-34.609308
  21
10.887960
  31
0.000000
  0
ARC
  8
0
  10
-34.697696
  20
10.976349
  30
0.000000
  40
0.125000
  50
-135.000000
  51
-45.000000
  0
ARC
  8
0
  10
-34.697696
  20
10.976349
  30
0.000000
  40
0.125000
  50
135.000000
  51
-135.000000
  0
LINE
  8
0
  10
-34.786085
  20
11.064737
  30
0.000000
  11
-34.786085
  21
12.679688
  31
0.000000
  0
ARC
  8
0
  10
-34.697696
  20
12.768076
  30
0.000000
  40
0.125000
  50
135.000000
  51
-135.000000
  0
ARC
  8
0
  10
-34.697696
  20
12.768076
  30
0.000000
  40
0.125000
  50
45.000000
  51
135.000000
  0
LINE
  8
0
  10
-34.609308
  20
12.856464
  30
0.000000
  11
-34.234515
  21
12.856464
  31
0.000000
  0
ARC
  8
0
  10
-29.396126
  20
12.768076
  30
0.000000
  40
0.125000
  50
45.000000
  51
135.000000
  0
ARC
  8
0
  10
-29.396126
  20
12.768076
  30
0.000000
  40
0.125000
  50
-45.000000
  51
45.000000
  0
LINE
  8
0
  10
-29.307738
  20
12.679688
  30
0.000000
  11
-29.307738
  21
11.064737
  31
0.000000
  0
ARC
  8
0
  10
-29.396126
  20
10.976349
  30
0.000000
  40
0.125000
  50
-45.000000
  51
45.000000
  0
ARC
  8
0
  10
-29.396126
  20
10.976349
  30
0.000000
  40
0.125000
  50
-135.000000
  51
-45.000000
  0
LINE
  8
0
  10
-29.484515
  20
10.887960
  30
0.000000
  11
-29.859308
  21
10.887960
  31
0.000000
  0
ARC
  8
0
  10
-29.947696
  20
10.976349
  30
0.000000
  40
0.125000
  50
-135.000000
  51
-45.000000
  0
ARC
  8
0
  10
-29.947696
  20
10.976349
  30
0.000000
  40
0.125000
  50
135.000000
  51
-135.000000
  0
LINE
  8
0
  10
-30.036084
  20
11.064737
  30
0.000000
  11
-30.036084
  21
12.679688
  31
0.000000
  0
ARC
  8
0
  10
-29.947696
  20
12.768076
  30
0.000000
  40
0.125000
  50
135.000000
  51
-135.000000
  0
ARC
  8
0
  10
-29.947696
  20
12.768076
  30
0.000000
  40
0.125000
  50
45.000000
  51
135.000000
  0
LINE
  8
0
  10
-29.859308
  20
12.856464
  30
0.000000
  11
-29.484515
  21
12.856464
  31
0.000000
  0
ARC
  8
0
  10
-24.646126
  20
12.768076
  30
0.000000
  40
0.125000
  50
45.000000
  51
135.000000
  0
ARC
  8
0
  10
-24.646126
  20
12.768076
  30
0.000000
  40
0.125000
  50
-45.000000
  51
45.000000
  0
LINE
  8
0
  10
-24.557738
  20
12.679688
  30
0.000000
  11
-24.557738
  21
11.064737
  31
0.000000
  0
ARC
  8
0
  10
-24.646126
  20
10.976349
  30
0.000000
  40
0.125000
  50
-45.000000
  51
45.000000
  0
ARC
  8
0
  10
-24.646126
  20
10.976349
  30
0.000000
  40
0.125000
  50
-135.000000
  51
-45.000000
  0
LINE
  8
0
  10
-24.734515
  20
10.887960
  30
0.000000
  11
-25.109308
  21
10.887960
  31
0.000000
  0
ARC
  8
0
  10
-25.197696
  20
10.976349
  30
0.000000
  40
0.125000
  50
-135.000000
  51
-45.000000
  0
ARC
  8
0
  10
-25.197696
  20
10.976349
  30
0.000000
  40
0.125000
  50
135.000000
  51
-135.000000
  0
LINE
  8
0
  10
-25.286084
  20
11.064737
  30
0.000000
  11
-25.286084
  21
12.679688
  31
0.000000
  0
ARC
  8
0
  10
-25.197696
  20
12.768076
  30
0.000000
  40
0.125000
  50
135.000000
  51
-135.000000
  0
ARC
  8
0
  10
-25.197696
  20
12.768076
  30
0.000000
  40
0.125000
  50
45.000000
  51
135.000000
  0
LINE
  8
0
  10
-25.109308
  20
12.856464
  30
0.000000
  11
-24.734515
  21
12.856464
  31
0.000000
  0
ARC
  8
0
  10
-19.896126
  20
12.768076
  30
0.000000
  40
0.125000
  50
45.000000
  51
135.000000
  0
ARC
  8
0
  10
-19.896126
  20
12.768076
  30
0.000000
  40
0.125000
  50
-45.000000
  51
45.000000
  0
LINE
  8
0
  10
-19.807738
  20
12.679688
  30
0.000000
  11
-19.807738
  21
11.064737
  31
0.000000
  0
ARC
  8
0
  10
-19.896126
  20
10.976349
  30
0.000000
  40
0.125000
  50
-45.000000
  51
45.000000
  0
ARC
  8
0
  10
-19.896126
  20
10.976349
  30
0.000000
  40
0.125000
  50
-135.000000
  51
-45.000000
  0
LINE
  8
0
  10
-19.984515
  20
10.887960
  30
0.000000
  11
-20.359308
  21
10.887960
  31
0.000000
  0
ARC
  8
0
  10
-20.447696
  20
10.976349
  30
0.000000
  40
0.125000
  50
-135.000000
  51
-45.000000
  0
ARC
  8
0
  10
-20.447696
  20
10.976349
  30
0.000000
  40
0.125000
  50
135.000000
  51
-135.000000
  0
LINE
  8
0
  10
-20.536084
  20
11.064737
  30
0.000000
  11
-20.536084
  21
12.679688
  31
0.000000
  0
ARC
  8
0
  10
-20.447696
  20
12.768076
  30
0.000000
  40
0.125000
  50
135.000000
  51
-135.000000
  0
ARC
  8
0
  10
-20.447696
  20
12.768076
  30
0.000000
  40
0.125000
  50
45.000000
  51
135.000000
  0
LINE
  8
0
  10
-20.359308
  20
12.856464
  30
0.000000
  11
-19.984515
  21
12.856464
  31
0.000000
  0
ARC
  8
0
  10
-15.146126
  20
12.768076
  30
0.000000
  40
0.125000
  50
45.000000
  51
135.000000
  0
ARC
  8
0
  10
-15.146126
  20
12.768076
  30
0.000000
  40
0.125000
  50
-45.000000
  51
45.000000
  0
LINE
  8
0
  10
-15.057738
  20
12.679688
  30
0.000000
  11
-15.057738
  21
11.064737
  31
0.000000
  0
ARC
  8
0
  10
-15.146126
  20
10.976349
  30
0.000000
  40
0.125000
  50
-45.000000
  51
45.000000
  0
ARC
  8
0
  10
-15.146126
  20
10.976349
  30
0.000000
  40
0.125000
  50
-135.000000
  51
-45.000000
  0
LINE
  8
0
  10
-15.234515
  20
10.887960
  30
0.000000
  11
-15.609308
  21
10.887960
  31
0.000000
  0
ARC
  8
0
  10
-15.697696
  20
10.976349
  30
0.000000
  40
0.125000
  50
-135.000000
  51
-45.000000
  0
ARC
  8
0
  10
-15.697696
  20
10.976349
  30
0.000000
  40
0.125000
  50
135.000000
  51
-135.000000
  0
LINE
  8
0
  10
-15.786084
  20
11.064737
  30
0.000000
  11
-15.786084
  21
12.679688
  31
0.000000
  0
ARC
  8
0
  10
-15.697696
  20
12.768076
  30
0.000000
  40
0.125000
  50
135.000000
  51
-135.000000
  0
ARC
  8
0
  10
-15.697696
  20
12.768076
  30
0.000000
  40
0.125000
  50
45.000000
  51
135.000000
  0
LINE
  8
0
  10
-15.609308
  20
12.856464
  30
0.000000
  11
-15.234515
  21
12.856464
  31
0.000000
  0
ARC
  8
0
  10
-10.396126
  20
12.768076
  30
0.000000
  40
0.125000
  50
45.000000
  51
135.000000
  0
ARC
  8
0
  10
-10.396126
  20
12.768076
  30
0.000000
  40
0.125000
  50
-45.000000
  51
45.000000
  0
LINE
  8
0
  10
-10.307738
  20
12.679688
  30
0.000000
  11
-10.307738
  21
11.064737
  31
0.000000
  0
ARC
  8
0
  10
-10.396126
  20
10.976349
  30
0.000000
  40
0.125000
  50
-45.000000
  51
45.000000
  0
ARC
  8
0
  10
-10.396126
  20
10.976349
  30
0.000000
  40
0.125000
  50
-135.000000
  51
-45.000000
  0
LINE
  8
0
  10
-10.484514
  20
10.887960
  30
0.000000
  11
-10.859308
  21
10.887960
  31
0.000000
  0
ARC
  8
0
  10
-10.947696
  20
10.976349
  30
0.000000
  40
0.125000
  50
-135.000000
  51
-45.000000
  0
ARC
  8
0
  10
-10.947696
  20
10.976349
  30
0.000000
  40
0.125000
  50
135.000000
  51
-135.000000
  0
LINE
  8
0
  10
-11.036084
  20
11.064737
  30
0.000000
  11
-11.036084
  21
12.679688
  31
0.000000
  0
ARC
  8
0
  10
-10.947696
  20
12.768076
  30
0.000000
  40
0.125000
  50
135.000000
  51
-135.000000
  0
ARC
  8
0
  10
-10.947696
  20
12.768076
  30
0.000000
  40
0.125000
  50
45.000000
  51
135.000000
  0
LINE
  8
0
  10
-10.859308
  20
12.856464
  30
0.000000
  11
-10.484514
  21
12.856464
  31
0.000000
  0
ARC
  8
0
  10
-5.646126
  20
12.768076
  30
0.000000
  40
0.125000
  50
45.000000
  51
135.000000
  0
ARC
  8
0
  10
-5.646126
  20
12.768076
  30
0.000000
  40
0.125000
  50
-45.000000
  51
45.000000
  0
LINE
  8
0
  10
-5.557738
  20
12.679688
  30
0.000000
  11
-5.557738
  21
11.064737
  31
0.000000
  0
ARC
  8
0
  10
-5.646126
  20
10.976349
  30
0.000000
  40
0.125000
  50
-45.000000
  51
45.000000
  0
ARC
  8
0
  10
-5.646126
  20
10.976349
  30
0.000000
  40
0.125000
  50
-135.000000
  51
-45.000000
  0
LINE
  8
0
  10
-5.734514
  20
10.887960
  30
0.000000
  11
-6.109307
  21
10.887960
  31
0.000000
  0
ARC
  8
0
  10
-6.197696
  20
10.976349
  30
0.000000
  40
0.125000
  50
-135.000000
  51
-45.000000
  0
ARC
  8
0
  10
-6.197696
  20
10.976349
  30
0.000000
  40
0.125000
  50
135.000000
  51
-135.000000
  0
LINE
  8
0
  10
-6.286084
  20
11.064737
  30
0.000000
  11
-6.286084
  21
12.679688
  31
0.000000
  0
ARC
  8
0
  10
-6.197696
  20
12.768076
  30
0.000000
  40
0.125000
  50
135.000000
  51
-135.000000
  0
ARC
  8
0
  10
-6.197696
  20
12.768076
  30
0.000000
  40
0.125000
  50
45.000000
  51
135.000000
  0
LINE
  8
0
  10
-6.109307
  20
12.856464
  30
0.000000
  11
-5.734514
  21
12.856464
  31
0.000000
  0
ARC
  8
0
  10
-43.646127
  20
-23.044425
  30
0.000000
  40
0.125000
  50
45.000000
  51
135.000000
  0
ARC
  8
0
  10
-43.646127
  20
-23.044425
  30
0.000000
  40
0.125000
  50
-45.000000
  51
45.000000
  0
LINE
  8
0
  10
-43.557738
  20
-23.132813
  30
0.000000
  11
-43.557738
  21
-24.747764
  31
0.000000
  0
ARC
  8
0
  10
-43.646127
  20
-24.836152
  30
0.000000
  40
0.125000
  50
-45.000000
  51
45.000000
  0
ARC
  8
0
  10
-43.646127
  20
-24.836152
  30
0.000000
  40
0.125000
  50
-135.000000
  51
-45.000000
  0
LINE
  8
0
  10
-43.734515
  20
-24.924540
  30
0.000000
  11
-44.109308
  21
-24.924540
  31
0.000000
  0
ARC
  8
0
  10
-44.197696
  20
-24.836152
  30
0.000000
  40
0.125000
  50
-135.000000
  51
-45.000000
  0
ARC
  8
0
  10
-44.197696
  20
-24.836152
  30
0.000000
  40
0.125000
  50
135.000000
  51
-135.000000
  0
LINE
  8
0
  10
-44.286085
  20
-24.747764
  30
0.000000
  11
-44.286085
  21
-23.132813
  31
0.000000
  0
ARC
  8
0
  10
-44.197696
  20
-23.044425
  30
0.000000
  40
0.125000
  50
135.000000
  51
-135.000000
  0
ARC
  8
0
  10
-44.197696
  20
-23.044425
  30
0.000000
  40
0.125000
  50
45.000000
  51
135.000000
  0
LINE
  8
0
  10
-44.109308
  20
-22.956036
  30
0.000000
  11
-43.734515
  21
-22.956036
  31
0.000000
  0
ARC
  8
0
  10
-38.896127
  20
-23.044425
  30
0.000000
  40
0.125000
  50
45.000000
  51
135.000000
  0
ARC
  8
0
  10
-38.896127
  20
-23.044425
  30
0.000000
  40
0.125000
  50
-45.000000
  51
45.000000
  0
LINE
  8
0
  10
-38.807738
  20
-23.132813
  30
0.000000
  11
-38.807738
  21
-24.747764
  31
0.000000
  0
ARC
  8
0
  10
-38.896127
  20
-24.836152
  30
0.000000
  40
0.125000
  50
-45.000000
  51
45.000000
  0
ARC
  8
0
  10
-38.896127
  20
-24.836152
  30
0.000000
  40
0.125000
  50
-135.000000
  51
-45.000000
  0
LINE
  8
0
  10
-38.984515
  20
-24.924540
  30
0.000000
  11
-39.359308
  21
-24.924540
  31
0.000000
  0
ARC
  8
0
  10
-39.447696
  20
-24.836152
  30
0.000000
  40
0.125000
  50
-135.000000
  51
-45.000000
  0
ARC
  8
0
  10
-39.447696
  20
-24.836152
  30
0.000000
  40
0.125000
  50
135.000000
  51
-135.000000
  0
LINE
  8
0
  10
-39.536085
  20
-24.747764
  30
0.000000
  11
-39.536085
  21
-23.132813
  31
0.000000
  0
ARC
  8
0
  10
-39.447696
  20
-23.044425
  30
0.000000
  40
0.125000
  50
135.000000
  51
-135.000000
  0
ARC
  8
0
  10
-39.447696
  20
-23.044425
  30
0.000000
  40
0.125000
  50
45.000000
  51
135.000000
  0
LINE
  8
0
  10
-39.359308
  20
-22.956036
  30
0.000000
  11
-38.984515
  21
-22.956036
  31
0.000000
  0
ARC
  8
0
  10
-0.896126
  20
-23.044425
  30
0.000000
  40
0.125000
  50
45.000000
  51
135.000000
  0
ARC
  8
0
  10
-0.896126
  20
-23.044425
  30
0.000000
  40
0.125000
  50
-45.000000
  51
45.000000
  0
LINE
  8
0
  10
-0.807738
  20
-23.132813
  30
0.000000
  11
-0.807738
  21
-24.747764
  31
0.000000
  0
ARC
  8
0
  10
-0.896126
  20
-24.836152
  30
0.000000
  40
0.125000
  50
-45.000000
  51
45.000000
  0
ARC
  8
0
  10
-0.896126
  20
-24.836152
  30
0.000000
  40
0.125000
  50
-135.000000
  51
-45.000000
  0
LINE
  8
0
  10
-0.984514
  20
-24.924540
  30
0.000000
  11
-1.359307
  21
-24.924540
  31
0.000000
  0
ARC
  8
0
  10
-1.447696
  20
-24.836152
  30
0.000000
  40
0.125000
  50
-135.000000
  51
-45.000000
  0
ARC
  8
0
  10
-1.447696
  20
-24.836152
  30
0.000000
  40
0.125000
  50
135.000000
  51
-135.000000
  0
LINE
  8
0
  10
-1.536084
  20
-24.747764
  30
0.000000
  11
-1.536084
  21
-23.132813
  31
0.000000
  0
ARC
  8
0
  10
-1.447696
  20
-23.044425
  30
0.000000
  40
0.125000
  50
135.000000
  51
-135.000000
  0
ARC
  8
0
  10
-1.447696
  20
-23.044425
  30
0.000000
  40
0.125000
  50
45.000000
  51
135.000000
  0
LINE
  8
0
  10
-1.359307
  20
-22.956036
  30
0.000000
  11
-0.984514
  21
-22.956036
  31
0.000000
  0
ARC
  8
0
  10
-34.146126
  20
-23.044425
  30
0.000000
  40
0.125000
  50
45.000000
  51
135.000000
  0
ARC
  8
0
  10
-34.146126
  20
-23.044425
  30
0.000000
  40
0.125000
  50
-45.000000
  51
45.000000
  0
LINE
  8
0
  10
-34.057738
  20
-23.132813
  30
0.000000
  11
-34.057738
  21
-24.747764
  31
0.000000
  0
ARC
  8
0
  10
-34.146126
  20
-24.836152
  30
0.000000
  40
0.125000
  50
-45.000000
  51
45.000000
  0
ARC
  8
0
  10
-34.146126
  20
-24.836152
  30
0.000000
  40
0.125000
  50
-135.000000
  51
-45.000000
  0
LINE
  8
0
  10
-34.234515
  20
-24.924540
  30
0.000000
  11
-34.609308
  21
-24.924540
  31
0.000000
  0
ARC
  8
0
  10
-34.697696
  20
-24.836152
  30
0.000000
  40
0.125000
  50
-135.000000
  51
-45.000000
  0
ARC
  8
0
  10
-34.697696
  20
-24.836152
  30
0.000000
  40
0.125000
  50
135.000000
  51
-135.000000
  0
LINE
  8
0
  10
-34.786085
  20
-24.747764
  30
0.000000
  11
-34.786085
  21
-23.132813
  31
0.000000
  0
ARC
  8
0
  10
-34.697696
  20
-23.044425
  30
0.000000
  40
0.125000
  50
135.000000
  51
-135.000000
  0
ARC
  8
0
  10
-34.697696
  20
-23.044425
  30
0.000000
  40
0.125000
  50
45.000000
  51
135.000000
  0
LINE
  8
0
  10
-34.609308
  20
-22.956036
  30
0.000000
  11
-34.234515
  21
-22.956036
  31
0.000000
  0
ARC
  8
0
  10
-29.396126
  20
-23.044425
  30
0.000000
  40
0.125000
  50
45.000000
  51
135.000000
  0
ARC
  8
0
  10
-29.396126
  20
-23.044425
  30
0.000000
  40
0.125000
  50
-45.000000
  51
45.000000
  0
LINE
  8
0
  10
-29.307738
  20
-23.132813
  30
0.000000
  11
-29.307738
  21
-24.747764
  31
0.000000
  0
ARC
  8
0
  10
-29.396126
  20
-24.836152
  30
0.000000
  40
0.125000
  50
-45.000000
  51
45.000000
  0
ARC
  8
0
  10
-29.396126
  20
-24.836152
  30
0.000000
  40
0.125000
  50
-135.000000
  51
-45.000000
  0
LINE
  8
0
  10
-29.484515
  20
-24.924540
  30
0.000000
  11
-29.859308
  21
-24.924540
  31
0.000000
  0
ARC
  8
0
  10
-29.947696
  20
-24.836152
  30
0.000000
  40
0.125000
  50
-135.000000
  51
-45.000000
  0
ARC
  8
0
  10
-29.947696
  20
-24.836152
  30
0.000000
  40
0.125000
  50
135.000000
  51
-135.000000
  0
LINE
  8
0
  10
-30.036084
  20
-24.747764
  30
0.000000
  11
-30.036084
  21
-23.132813
  31
0.000000
  0
ARC
  8
0
  10
-29.947696
  20
-23.044425
  30
0.000000
  40
0.125000
  50
135.000000
  51
-135.000000
  0
ARC
  8
0
  10
-29.947696
  20
-23.044425
  30
0.000000
  40
0.125000
  50
45.000000
  51
135.000000
  0
LINE
  8
0
  10
-29.859308
  20
-22.956036
  30
0.000000
  11
-29.484515
  21
-22.956036
  31
0.000000
  0
ARC
  8
0
  10
-24.646126
  20
-23.044425
  30
0.000000
  40
0.125000
  50
45.000000
  51
135.000000
  0
ARC
  8
0
  10
-24.646126
  20
-23.044425
  30
0.000000
  40
0.125000
  50
-45.000000
  51
45.000000
  0
LINE
  8
0
  10
-24.557738
  20
-23.132813
  30
0.000000
  11
-24.557738
  21
-24.747764
  31
0.000000
  0
ARC
  8
0
  10
-24.646126
  20
-24.836152
  30
0.000000
  40
0.125000
  50
-45.000000
  51
45.000000
  0
ARC
  8
0
  10
-24.646126
  20
-24.836152
  30
0.000000
  40
0.125000
  50
-135.000000
  51
-45.000000
  0
LINE
  8
0
  10
-24.734515
  20
-24.924540
  30
0.000000
  11
-25.109308
  21
-24.924540
  31
0.000000
  0
ARC
  8
0
  10
-25.197696
  20
-24.836152
  30
0.000000
  40
0.125000
  50
-135.000000
  51
-45.000000
  0
ARC
  8
0
  10
-25.197696
  20
-24.836152
  30
0.000000
  40
0.125000
  50
135.000000
  51
-135.000000
  0
LINE
  8
0
  10
-25.286084
  20
-24.747764
  30
0.000000
  11
-25.286084
  21
-23.132813
  31
0.000000
  0
ARC
  8
0
  10
-25.197696
  20
-23.044425
  30
0.000000
  40
0.125000
  50
135.000000
  51
-135.000000
  0
ARC
  8
0
  10
-25.197696
  20
-23.044425
  30
0.000000
  40
0.125000
  50
45.000000
  51
135.000000
  0
LINE
  8
0
  10
-25.109308
  20
-22.956036
  30
0.000000
  11
-24.734515
  21
-22.956036
  31
0.000000
  0
ARC
  8
0
  10
-19.896126
  20
-23.044425
  30
0.000000
  40
0.125000
  50
45.000000
  51
135.000000
  0
ARC
  8
0
  10
-19.896126
  20
-23.044425
  30
0.000000
  40
0.125000
  50
-45.000000
  51
45.000000
  0
LINE
  8
0
  10
-19.807738
  20
-23.132813
  30
0.000000
  11
-19.807738
  21
-24.747764
  31
0.000000
  0
ARC
  8
0
  10
-19.896126
  20
-24.836152
  30
0.000000
  40
0.125000
  50
-45.000000
  51
45.000000
  0
ARC
  8
0
  10
-19.896126
  20
-24.836152
  30
0.000000
  40
0.125000
  50
-135.000000
  51
-45.000000
  0
LINE
  8
0
  10
-19.984515
  20
-24.924540
  30
0.000000
  11
-20.359308
  21
-24.924540
  31
0.000000
  0
ARC
  8
0
  10
-20.447696
  20
-24.836152
  30
0.000000
  40
0.125000
  50
-135.000000
  51
-45.000000
  0
ARC
  8
0
  10
-20.447696
  20
-24.836152
  30
0.000000
  40
0.125000
  50
135.000000
  51
-135.000000
  0
LINE
  8
0
  10
-20.536084
  20
-24.747764
  30
0.000000
  11
-20.536084
  21
-23.132813
  31
0.000000
  0
ARC
  8
0
  10
-20.447696
  20
-23.044425
  30
0.000000
  40
0.125000
  50
135.000000
  51
-135.000000
  0
ARC
  8
0
  10
-20.447696
  20
-23.044425
  30
0.000000
  40
0.125000
  50
45.000000
  51
135.000000
  0
LINE
  8
0
  10
-20.359308
  20
-22.956036
  30
0.000000
  11
-19.984515
  21
-22.956036
  31
0.000000
  0
ARC
  8
0
  10
-15.146126
  20
-23.044425
  30
0.000000
  40
0.125000
  50
45.000000
  51
135.000000
  0
ARC
  8
0
  10
-15.146126
  20
-23.044425
  30
0.000000
  40
0.125000
  50
-45.000000
  51
45.000000
  0
LINE
  8
0
  10
-15.057738
  20
-23.132813
  30
0.000000
  11
-15.057738
  21
-24.747764
  31
0.000000
  0
ARC
  8
0
  10
-15.146126
  20
-24.836152
  30
0.000000
  40
0.125000
  50
-45.000000
  51
45.000000
  0
ARC
  8
0
  10
-15.146126
  20
-24.836152
  30
0.000000
  40
0.125000
  50
-135.000000
  51
-45.000000
  0
LINE
  8
0
  10
-15.234515
  20
-24.924540
  30
0.000000
  11
-15.609308
  21
-24.924540
  31
0.000000
  0
ARC
  8
0
  10
-15.697696
  20
-24.836152
  30
0.000000
  40
0.125000
  50
-135.000000
  51
-45.000000
  0
ARC
  8
0
  10
-15.697696
  20
-24.836152
  30
0.000000
  40
0.125000
  50
135.000000
  51
-135.000000
  0
LINE
  8
0
  10
-15.786084
  20
-24.747764
  30
0.000000
  11
-15.786084
  21
-23.132813
  31
0.000000
  0
ARC
  8
0
  10
-15.697696
  20
-23.044425
  30
0.000000
  40
0.125000
  50
135.000000
  51
-135.000000
  0
ARC
  8
0
  10
-15.697696
  20
-23.044425
  30
0.000000
  40
0.125000
  50
45.000000
  51
135.000000
  0
LINE
  8
0
  10
-15.609308
  20
-22.956036
  30
0.000000
  11
-15.234515
  21
-22.956036
  31
0.000000
  0
ARC
  8
0
  10
-10.396126
  20
-23.044425
  30
0.000000
  40
0.125000
  50
45.000000
  51
135.000000
  0
ARC
  8
0
  10
-10.396126
  20
-23.044425
  30
0.000000
  40
0.125000
  50
-45.000000
  51
45.000000
  0
LINE
  8
0
  10
-10.307738
  20
-23.132813
  30
0.000000
  11
-10.307738
  21
-24.747764
  31
0.000000
  0
ARC
  8
0
  10
-10.396126
  20
-24.836152
  30
0.000000
  40
0.125000
  50
-45.000000
  51
45.000000
  0
ARC
  8
0
  10
-10.396126
  20
-24.836152
  30
0.000000
  40
0.125000
  50
-135.000000
  51
-45.000000
  0
LINE
  8
0
  10
-10.484514
  20
-24.924540
  30
0.000000
  11
-10.859308
  21
-24.924540
  31
0.000000
  0
ARC
  8
0
  10
-10.947696
  20
-24.836152
  30
0.000000
  40
0.125000
  50
-135.000000
  51
-45.000000
  0
ARC
  8
0
  10
-10.947696
  20
-24.836152
  30
0.000000
  40
0.125000
  50
135.000000
  51
-135.000000
  0
LINE
  8
0
  10
-11.036084
  20
-24.747764
  30
0.000000
  11
-11.036084
  21
-23.132813
  31
0.000000
  0
ARC
  8
0
  10
-10.947696
  20
-23.044425
  30
0.000000
  40
0.125000
  50
135.000000
  51
-135.000000
  0
ARC
  8
0
  10
-10.947696
  20
-23.044425
  30
0.000000
  40
0.125000
  50
45.000000
  51
135.000000
  0
LINE
  8
0
  10
-10.859308
  20
-22.956036
  30
0.000000
  11
-10.484514
  21
-22.956036
  31
0.000000
  0
ARC
  8
0
  10
-5.646126
  20
-23.044425
  30
0.000000
  40
0.125000
  50
45.000000
  51
135.000000
  0
ARC
  8
0
  10
-5.646126
  20
-23.044425
  30
0.000000
  40
0.125000
  50
-45.000000
  51
45.000000
  0
LINE
  8
0
  10
-5.557738
  20
-23.132813
  30
0.000000
  11
-5.557738
  21
-24.747764
  31
0.000000
  0
ARC
  8
0
  10
-5.646126
  20
-24.836152
  30
0.000000
  40
0.125000
  50
-45.000000
  51
45.000000
  0
ARC
  8
0
  10
-5.646126
  20
-24.836152
  30
0.000000
  40
0.125000
  50
-135.000000
  51
-45.000000
  0
LINE
  8
0
  10
-5.734514
  20
-24.924540
  30
0.000000
  11
-6.109307
  21
-24.924540
  31
0.000000
  0
ARC
  8
0
  10
-6.197696
  20
-24.836152
  30
0.000000
  40
0.125000
  50
-135.000000
  51
-45.000000
  0
ARC
  8
0
  10
-6.197696
  20
-24.836152
  30
0.000000
  40
0.125000
  50
135.000000
  51
-135.000000
  0
LINE
  8
0
  10
-6.286084
  20
-24.747764
  30
0.000000
  11
-6.286084
  21
-23.132813
  31
0.000000
  0
ARC
  8
0
  10
-6.197696
  20
-23.044425
  30
0.000000
  40
0.125000
  50
135.000000
  51
-135.000000
  0
ARC
  8
0
  10
-6.197696
  20
-23.044425
  30
0.000000
  40
0.125000
  50
45.000000
  51
135.000000
  0
LINE
  8
0
  10
-6.109307
  20
-22.956036
  30
0.000000
  11
-5.734514
  21
-22.956036
  31
0.000000
  0
ARC
  8
0
  10
-43.646127
  20
6.799326
  30
0.000000
  40
0.125000
  50
45.000000
  51
135.000000
  0
ARC
  8
0
  10
-43.646127
  20
6.799326
  30
0.000000
  40
0.125000
  50
-45.000000
  51
45.000000
  0
LINE
  8
0
  10
-43.557738
  20
6.710937
  30
0.000000
  11
-43.557738
  21
5.095987
  31
0.000000
  0
ARC
  8
0
  10
-43.646127
  20
5.007599
  30
0.000000
  40
0.125000
  50
-45.000000
  51
45.000000
  0
ARC
  8
0
  10
-43.646127
  20
5.007599
  30
0.000000
  40
0.125000
  50
-135.000000
  51
-45.000000
  0
LINE
  8
0
  10
-43.734515
  20
4.919210
  30
0.000000
  11
-44.109308
  21
4.919210
  31
0.000000
  0
ARC
  8
0
  10
-44.197696
  20
5.007599
  30
0.000000
  40
0.125000
  50
-135.000000
  51
-45.000000
  0
ARC
  8
0
  10
-44.197696
  20
5.007599
  30
0.000000
  40
0.125000
  50
135.000000
  51
-135.000000
  0
LINE
  8
0
  10
-44.286085
  20
5.095987
  30
0.000000
  11
-44.286085
  21
6.710937
  31
0.000000
  0
ARC
  8
0
  10
-44.197696
  20
6.799326
  30
0.000000
  40
0.125000
  50
135.000000
  51
-135.000000
  0
ARC
  8
0
  10
-44.197696
  20
6.799326
  30
0.000000
  40
0.125000
  50
45.000000
  51
135.000000
  0
LINE
  8
0
  10
-44.109308
  20
6.887714
  30
0.000000
  11
-43.734515
  21
6.887714
  31
0.000000
  0
ARC
  8
0
  10
-38.896127
  20
6.799326
  30
0.000000
  40
0.125000
  50
45.000000
  51
135.000000
  0
ARC
  8
0
  10
-38.896127
  20
6.799326
  30
0.000000
  40
0.125000
  50
-45.000000
  51
45.000000
  0
LINE
  8
0
  10
-38.807738
  20
6.710937
  30
0.000000
  11
-38.807738
  21
5.095987
  31
0.000000
  0
ARC
  8
0
  10
-38.896127
  20
5.007599
  30
0.000000
  40
0.125000
  50
-45.000000
  51
45.000000
  0
ARC
  8
0
  10
-38.896127
  20
5.007599
  30
0.000000
  40
0.125000
  50
-135.000000
  51
-45.000000
  0
LINE
  8
0
  10
-38.984515
  20
4.919210
  30
0.000000
  11
-39.359308
  21
4.919210
  31
0.000000
  0
ARC
  8
0
  10
-39.447696
  20
5.007599
  30
0.000000
  40
0.125000
  50
-135.000000
  51
-45.000000
  0
ARC
  8
0
  10
-39.447696
  20
5.007599
  30
0.000000
  40
0.125000
  50
135.000000
  51
-135.000000
  0
LINE
  8
0
  10
-39.536085
  20
5.095987
  30
0.000000
  11
-39.536085
  21
6.710937
  31
0.000000
  0
ARC
  8
0
  10
-39.447696
  20
6.799326
  30
0.000000
  40
0.125000
  50
135.000000
  51
-135.000000
  0
ARC
  8
0
  10
-39.447696
  20
6.799326
  30
0.000000
  40
0.125000
  50
45.000000
  51
135.000000
  0
LINE
  8
0
  10
-39.359308
  20
6.887714
  30
0.000000
  11
-38.984515
  21
6.887714
  31
0.000000
  0
ARC
  8
0
  10
-0.896126
  20
6.799326
  30
0.000000
  40
0.125000
  50
45.000000
  51
135.000000
  0
ARC
  8
0
  10
-0.896126
  20
6.799326
  30
0.000000
  40
0.125000
  50
-45.000000
  51
45.000000
  0
LINE
  8
0
  10
-0.807738
  20
6.710937
  30
0.000000
  11
-0.807738
  21
5.095987
  31
0.000000
  0
ARC
  8
0
  10
-0.896126
  20
5.007599
  30
0.000000
  40
0.125000
  50
-45.000000
  51
45.000000
  0
ARC
  8
0
  10
-0.896126
  20
5.007599
  30
0.000000
  40
0.125000
  50
-135.000000
  51
-45.000000
  0
LINE
  8
0
  10
-0.984514
  20
4.919210
  30
0.000000
  11
-1.359307
  21
4.919210
  31
0.000000
  0
ARC
  8
0
  10
-1.447696
  20
5.007599
  30
0.000000
  40
0.125000
  50
-135.000000
  51
-45.000000
  0
ARC
  8
0
  10
-1.447696
  20
5.007599
  30
0.000000
  40
0.125000
  50
135.000000
  51
-135.000000
  0
LINE
  8
0
  10
-1.536084
  20
5.095987
  30
0.000000
  11
-1.536084
  21
6.710937
  31
0.000000
  0
ARC
  8
0
  10
-1.447696
  20
6.799326
  30
0.000000
  40
0.125000
  50
135.000000
  51
-135.000000
  0
ARC
  8
0
  10
-1.447696
  20
6.799326
  30
0.000000
  40
0.125000
  50
45.000000
  51
135.000000
  0
LINE
  8
0
  10
-1.359307
  20
6.887714
  30
0.000000
  11
-0.984514
  21
6.887714
  31
0.000000
  0
ARC
  8
0
  10
-34.146126
  20
6.799326
  30
0.000000
  40
0.125000
  50
45.000000
  51
135.000000
  0
ARC
  8
0
  10
-34.146126
  20
6.799326
  30
0.000000
  40
0.125000
  50
-45.000000
  51
45.000000
  0
LINE
  8
0
  10
-34.057738
  20
6.710937
  30
0.000000
  11
-34.057738
  21
5.095987
  31
0.000000
  0
ARC
  8
0
  10
-34.146126
  20
5.007599
  30
0.000000
  40
0.125000
  50
-45.000000
  51
45.000000
  0
ARC
  8
0
  10
-34.146126
  20
5.007599
  30
0.000000
  40
0.125000
  50
-135.000000
  51
-45.000000
  0
LINE
  8
0
  10
-34.234515
  20
4.919210
  30
0.000000
  11
-34.609308
  21
4.919210
  31
0.000000
  0
ARC
  8
0
  10
-34.697696
  20
5.007599
  30
0.000000
  40
0.125000
  50
-135.000000
  51
-45.000000
  0
ARC
  8
0
  10
-34.697696
  20
5.007599
  30
0.000000
  40
0.125000
  50
135.000000
  51
-135.000000
  0
LINE
  8
0
  10
-34.786085
  20
5.095987
  30
0.000000
  11
-34.786085
  21
6.710937
  31
0.000000
  0
ARC
  8
0
  10
-34.697696
  20
6.799326
  30
0.000000
  40
0.125000
  50
135.000000
  51
-135.000000
  0
ARC
  8
0
  10
-34.697696
  20
6.799326
  30
0.000000
  40
0.125000
  50
45.000000
  51
135.000000
  0
LINE
  8
0
  10
-34.609308
  20
6.887714
  30
0.000000
  11
-34.234515
  21
6.887714
  31
0.000000
  0
ARC
  8
0
  10
-29.396126
  20
6.799326
  30
0.000000
  40
0.125000
  50
45.000000
  51
135.000000
  0
ARC
  8
0
  10
-29.396126
  20
6.799326
  30
0.000000
  40
0.125000
  50
-45.000000
  51
45.000000
  0
LINE
  8
0
  10
-29.307738
  20
6.710937
  30
0.000000
  11
-29.307738
  21
5.095987
  31
0.000000
  0
ARC
  8
0
  10
-29.396126
  20
5.007599
  30
0.000000
  40
0.125000
  50
-45.000000
  51
45.000000
  0
ARC
  8
0
  10
-29.396126
  20
5.007599
  30
0.000000
  40
0.125000
  50
-135.000000
  51
-45.000000
  0
LINE
  8
0
  10
-29.484515
  20
4.919210
  30
0.000000
  11
-29.859308
  21
4.919210
  31
0.000000
  0
ARC
  8
0
  10
-29.947696
  20
5.007599
  30
0.000000
  40
0.125000
  50
-135.000000
  51
-45.000000
  0
ARC
  8
0
  10
-29.947696
  20
5.007599
  30
0.000000
  40
0.125000
  50
135.000000
  51
-135.000000
  0
LINE
  8
0
  10
-30.036084
  20
5.095987
  30
0.000000
  11
-30.036084
  21
6.710937
  31
0.000000
  0
ARC
  8
0
  10
-29.947696
  20
6.799326
  30
0.000000
  40
0.125000
  50
135.000000
  51
-135.000000
  0
ARC
  8
0
  10
-29.947696
  20
6.799326
  30
0.000000
  40
0.125000
  50
45.000000
  51
135.000000
  0
LINE
  8
0
  10
-29.859308
  20
6.887714
  30
0.000000
  11
-29.484515
  21
6.887714
  31
0.000000
  0
ARC
  8
0
  10
-24.646126
  20
6.799326
  30
0.000000
  40
0.125000
  50
45.000000
  51
135.000000
  0
ARC
  8
0
  10
-24.646126
  20
6.799326
  30
0.000000
  40
0.125000
  50
-45.000000
  51
45.000000
  0
LINE
  8
0
  10
-24.557738
  20
6.710937
  30
0.000000
  11
-24.557738
  21
5.095987
  31
0.000000
  0
ARC
  8
0
  10
-24.646126
  20
5.007599
  30
0.000000
  40
0.125000
  50
-45.000000
  51
45.000000
  0
ARC
  8
0
  10
-24.646126
  20
5.007599
  30
0.000000
  40
0.125000
  50
-135.000000
  51
-45.000000
  0
LINE
  8
0
  10
-24.734515
  20
4.919210
  30
0.000000
  11
-25.109308
  21
4.919210
  31
0.000000
  0
ARC
  8
0
  10
-25.197696
  20
5.007599
  30
0.000000
  40
0.125000
  50
-135.000000
  51
-45.000000
  0
ARC
  8
0
  10
-25.197696
  20
5.007599
  30
0.000000
  40
0.125000
  50
135.000000
  51
-135.000000
  0
LINE
  8
0
  10
-25.286084
  20
5.095987
  30
0.000000
  11
-25.286084
  21
6.710937
  31
0.000000
  0
ARC
  8
0
  10
-25.197696
  20
6.799326
  30
0.000000
  40
0.125000
  50
135.000000
  51
-135.000000
  0
ARC
  8
0
  10
-25.197696
  20
6.799326
  30
0.000000
  40
0.125000
  50
45.000000
  51
135.000000
  0
LINE
  8
0
  10
-25.109308
  20
6.887714
  30
0.000000
  11
-24.734515
  21
6.887714
  31
0.000000
  0
ARC
  8
0
  10
-19.896126
  20
6.799326
  30
0.000000
  40
0.125000
  50
45.000000
  51
135.000000
  0
ARC
  8
0
  10
-19.896126
  20
6.799326
  30
0.000000
  40
0.125000
  50
-45.000000
  51
45.000000
  0
LINE
  8
0
  10
-19.807738
  20
6.710937
  30
0.000000
  11
-19.807738
  21
5.095987
  31
0.000000
  0
ARC
  8
0
  10
-19.896126
  20
5.007599
  30
0.000000
  40
0.125000
  50
-45.000000
  51
45.000000
  0
ARC
  8
0
  10
-19.896126
  20
5.007599
  30
0.000000
  40
0.125000
  50
-135.000000
  51
-45.000000
  0
LINE
  8
0
  10
-19.984515
  20
4.919210
  30
0.000000
  11
-20.359308
  21
4.919210
  31
0.000000
  0
ARC
  8
0
  10
-20.447696
  20
5.007599
  30
0.000000
  40
0.125000
  50
-135.000000
  51
-45.000000
  0
ARC
  8
0
  10
-20.447696
  20
5.007599
  30
0.000000
  40
0.125000
  50
135.000000
  51
-135.000000
  0
LINE
  8
0
  10
-20.536084
  20
5.095987
  30
0.000000
  11
-20.536084
  21
6.710937
  31
0.000000
  0
ARC
  8
0
  10
-20.447696
  20
6.799326
  30
0.000000
  40
0.125000
  50
135.000000
  51
-135.000000
  0
ARC
  8
0
  10
-20.447696
  20
6.799326
  30
0.000000
  40
0.125000
  50
45.000000
  51
135.000000
  0
LINE
  8
0
  10
-20.359308
  20
6.887714
  30
0.000000
  11
-19.984515
  21
6.887714
  31
0.000000
  0
ARC
  8
0
  10
-15.146126
  20
6.799326
  30
0.000000
  40
0.125000
  50
45.000000
  51
135.000000
  0
ARC
  8
0
  10
-15.146126
  20
6.799326
  30
0.000000
  40
0.125000
  50
-45.000000
  51
45.000000
  0
LINE
  8
0
  10
-15.057738
  20
6.710937
  30
0.000000
  11
-15.057738
  21
5.095987
  31
0.000000
  0
ARC
  8
0
  10
-15.146126
  20
5.007599
  30
0.000000
  40
0.125000
  50
-45.000000
  51
45.000000
  0
ARC
  8
0
  10
-15.146126
  20
5.007599
  30
0.000000
  40
0.125000
  50
-135.000000
  51
-45.000000
  0
LINE
  8
0
  10
-15.234515
  20
4.919210
  30
0.000000
  11
-15.609308
  21
4.919210
  31
0.000000
  0
ARC
  8
0
  10
-15.697696
  20
5.007599
  30
0.000000
  40
0.125000
  50
-135.000000
  51
-45.000000
  0
ARC
  8
0
  10
-15.697696
  20
5.007599
  30
0.000000
  40
0.125000
  50
135.000000
  51
-135.000000
  0
LINE
  8
0
  10
-15.786084
  20
5.095987
  30
0.000000
  11
-15.786084
  21
6.710937
  31
0.000000
  0
ARC
  8
0
  10
-15.697696
  20
6.799326
  30
0.000000
  40
0.125000
  50
135.000000
  51
-135.000000
  0
ARC
  8
0
  10
-15.697696
  20
6.799326
  30
0.000000
  40
0.125000
  50
45.000000
  51
135.000000
  0
LINE
  8
0
  10
-15.609308
  20
6.887714
  30
0.000000
  11
-15.234515
  21
6.887714
  31
0.000000
  0
ARC
  8
0
  10
-10.396126
  20
6.799326
  30
0.000000
  40
0.125000
  50
45.000000
  51
135.000000
  0
ARC
  8
0
  10
-10.396126
  20
6.799326
  30
0.000000
  40
0.125000
  50
-45.000000
  51
45.000000
  0
LINE
  8
0
  10
-10.307738
  20
6.710937
  30
0.000000
  11
-10.307738
  21
5.095987
  31
0.000000
  0
ARC
  8
0
  10
-10.396126
  20
5.007599
  30
0.000000
  40
0.125000
  50
-45.000000
  51
45.000000
  0
ARC
  8
0
  10
-10.396126
  20
5.007599
  30
0.000000
  40
0.125000
  50
-135.000000
  51
-45.000000
  0
LINE
  8
0
  10
-10.484514
  20
4.919210
  30
0.000000
  11
-10.859308
  21
4.919210
  31
0.000000
  0
ARC
  8
0
  10
-10.947696
  20
5.007599
  30
0.000000
  40
0.125000
  50
-135.000000
  51
-45.000000
  0
ARC
  8
0
  10
-10.947696
  20
5.007599
  30
0.000000
  40
0.125000
  50
135.000000
  51
-135.000000
  0
LINE
  8
0
  10
-11.036084
  20
5.095987
  30
0.000000
  11
-11.036084
  21
6.710937
  31
0.000000
  0
ARC
  8
0
  10
-10.947696
  20
6.799326
  30
0.000000
  40
0.125000
  50
135.000000
  51
-135.000000
  0
ARC
  8
0
  10
-10.947696
  20
6.799326
  30
0.000000
  40
0.125000
  50
45.000000
  51
135.000000
  0
LINE
  8
0
  10
-10.859308
  20
6.887714
  30
0.000000
  11
-10.484514
  21
6.887714
  31
0.000000
  0
ARC
  8
0
  10
-5.646126
  20
6.799326
  30
0.000000
  40
0.125000
  50
45.000000
  51
135.000000
  0
ARC
  8
0
  10
-5.646126
  20
6.799326
  30
0.000000
  40
0.125000
  50
-45.000000
  51
45.000000
  0
LINE
  8
0
  10
-5.557738
  20
6.710937
  30
0.000000
  11
-5.557738
  21
5.095987
  31
0.000000
  0
ARC
  8
0
  10
-5.646126
  20
5.007599
  30
0.000000
  40
0.125000
  50
-45.000000
  51
45.000000
  0
ARC
  8
0
  10
-5.646126
  20
5.007599
  30
0.000000
  40
0.125000
  50
-135.000000
  51
-45.000000
  0
LINE
  8
0
  10
-5.734514
  20
4.919210
  30
0.000000
  11
-6.109307
  21
4.919210
  31
0.000000
  0
ARC
  8
0
  10
-6.197696
  20
5.007599
  30
0.000000
  40
0.125000
  50
-135.000000
  51
-45.000000
  0
ARC
  8
0
  10
-6.197696
  20
5.007599
  30
0.000000
  40
0.125000
  50
135.000000
  51
-135.000000
  0
LINE
  8
0
  10
-6.286084
  20
5.095987
  30
0.000000
  11
-6.286084
  21
6.710937
  31
0.000000
  0
ARC
  8
0
  10
-6.197696
  20
6.799326
  30
0.000000
  40
0.125000
  50
135.000000
  51
-135.000000
  0
ARC
  8
0
  10
-6.197696
  20
6.799326
  30
0.000000
  40
0.125000
  50
45.000000
  51
135.000000
  0
LINE
  8
0
  10
-6.109307
  20
6.887714
  30
0.000000
  11
-5.734514
  21
6.887714
  31
0.000000
  0
ARC
  8
0
  10
-43.646127
  20
0.830576
  30
0.000000
  40
0.125000
  50
45.000000
  51
135.000000
  0
ARC
  8
0
  10
-43.646127
  20
0.830576
  30
0.000000
  40
0.125000
  50
-45.000000
  51
45.000000
  0
LINE
  8
0
  10
-43.557738
  20
0.742187
  30
0.000000
  11
-43.557738
  21
-0.872763
  31
0.000000
  0
ARC
  8
0
  10
-43.646127
  20
-0.961152
  30
0.000000
  40
0.125000
  50
-45.000000
  51
45.000000
  0
ARC
  8
0
  10
-43.646127
  20
-0.961152
  30
0.000000
  40
0.125000
  50
-135.000000
  51
-45.000000
  0
LINE
  8
0
  10
-43.734515
  20
-1.049540
  30
0.000000
  11
-44.109308
  21
-1.049540
  31
0.000000
  0
ARC
  8
0
  10
-44.197696
  20
-0.961152
  30
0.000000
  40
0.125000
  50
-135.000000
  51
-45.000000
  0
ARC
  8
0
  10
-44.197696
  20
-0.961152
  30
0.000000
  40
0.125000
  50
135.000000
  51
-135.000000
  0
LINE
  8
0
  10
-44.286085
  20
-0.872763
  30
0.000000
  11
-44.286085
  21
0.742187
  31
0.000000
  0
ARC
  8
0
  10
-44.197696
  20
0.830576
  30
0.000000
  40
0.125000
  50
135.000000
  51
-135.000000
  0
ARC
  8
0
  10
-44.197696
  20
0.830576
  30
0.000000
  40
0.125000
  50
45.000000
  51
135.000000
  0
LINE
  8
0
  10
-44.109308
  20
0.918964
  30
0.000000
  11
-43.734515
  21
0.918964
  31
0.000000
  0
ARC
  8
0
  10
-38.896127
  20
0.830576
  30
0.000000
  40
0.125000
  50
45.000000
  51
135.000000
  0
ARC
  8
0
  10
-38.896127
  20
0.830576
  30
0.000000
  40
0.125000
  50
-45.000000
  51
45.000000
  0
LINE
  8
0
  10
-38.807738
  20
0.742187
  30
0.000000
  11
-38.807738
  21
-0.872763
  31
0.000000
  0
ARC
  8
0
  10
-38.896127
  20
-0.961152
  30
0.000000
  40
0.125000
  50
-45.000000
  51
45.000000
  0
ARC
  8
0
  10
-38.896127
  20
-0.961152
  30
0.000000
  40
0.125000
  50
-135.000000
  51
-45.000000
  0
LINE
  8
0
  10
-38.984515
  20
-1.049540
  30
0.000000
  11
-39.359308
  21
-1.049540
  31
0.000000
  0
ARC
  8
0
  10
-39.447696
  20
-0.961152
  30
0.000000
  40
0.125000
  50
-135.000000
  51
-45.000000
  0
ARC
  8
0
  10
-39.447696
  20
-0.961152
  30
0.000000
  40
0.125000
  50
135.000000
  51
-135.000000
  0
LINE
  8
0
  10
-39.536085
  20
-0.872763
  30
0.000000
  11
-39.536085
  21
0.742187
  31
0.000000
  0
ARC
  8
0
  10
-39.447696
  20
0.830576
  30
0.000000
  40
0.125000
  50
135.000000
  51
-135.000000
  0
ARC
  8
0
  10
-39.447696
  20
0.830576
  30
0.000000
  40
0.125000
  50
45.000000
  51
135.000000
  0
LINE
  8
0
  10
-39.359308
  20
0.918964
  30
0.000000
  11
-38.984515
  21
0.918964
  31
0.000000
  0
ARC
  8
0
  10
-0.896126
  20
0.830576
  30
0.000000
  40
0.125000
  50
45.000000
  51
135.000000
  0
ARC
  8
0
  10
-0.896126
  20
0.830576
  30
0.000000
  40
0.125000
  50
-45.000000
  51
45.000000
  0
LINE
  8
0
  10
-0.807738
  20
0.742187
  30
0.000000
  11
-0.807738
  21
-0.872763
  31
0.000000
  0
ARC
  8
0
  10
-0.896126
  20
-0.961152
  30
0.000000
  40
0.125000
  50
-45.000000
  51
45.000000
  0
ARC
  8
0
  10
-0.896126
  20
-0.961152
  30
0.000000
  40
0.125000
  50
-135.000000
  51
-45.000000
  0
LINE
  8
0
  10
-0.984514
  20
-1.049540
  30
0.000000
  11
-1.359307
  21
-1.049540
  31
0.000000
  0
ARC
  8
0
  10
-1.447696
  20
-0.961152
  30
0.000000
  40
0.125000
  50
-135.000000
  51
-45.000000
  0
ARC
  8
0
  10
-1.447696
  20
-0.961152
  30
0.000000
  40
0.125000
  50
135.000000
  51
-135.000000
  0
LINE
  8
0
  10
-1.536084
  20
-0.872763
  30
0.000000
  11
-1.536084
  21
0.742187
  31
0.000000
  0
ARC
  8
0
  10
-1.447696
  20
0.830576
  30
0.000000
  40
0.125000
  50
135.000000
  51
-135.000000
  0
ARC
  8
0
  10
-1.447696
  20
0.830576
  30
0.000000
  40
0.125000
  50
45.000000
  51
135.000000
  0
LINE
  8
0
  10
-1.359307
  20
0.918964
  30
0.000000
  11
-0.984514
  21
0.918964
  31
0.000000
  0
ARC
  8
0
  10
-34.146126
  20
0.830576
  30
0.000000
  40
0.125000
  50
45.000000
  51
135.000000
  0
ARC
  8
0
  10
-34.146126
  20
0.830576
  30
0.000000
  40
0.125000
  50
-45.000000
  51
45.000000
  0
LINE
  8
0
  10
-34.057738
  20
0.742187
  30
0.000000
  11
-34.057738
  21
-0.872763
  31
0.000000
  0
ARC
  8
0
  10
-34.146126
  20
-0.961152
  30
0.000000
  40
0.125000
  50
-45.000000
  51
45.000000
  0
ARC
  8
0
  10
-34.146126
  20
-0.961152
  30
0.000000
  40
0.125000
  50
-135.000000
  51
-45.000000
  0
LINE
  8
0
  10
-34.234515
  20
-1.049540
  30
0.000000
  11
-34.609308
  21
-1.049540
  31
0.000000
  0
ARC
  8
0
  10
-34.697696
  20
-0.961152
  30
0.000000
  40
0.125000
  50
-135.000000
  51
-45.000000
  0
ARC
  8
0
  10
-34.697696
  20
-0.961152
  30
0.000000
  40
0.125000
  50
135.000000
  51
-135.000000
  0
LINE
  8
0
  10
-34.786085
  20
-0.872763
  30
0.000000
  11
-34.786085
  21
0.742187
  31
0.000000
  0
ARC
  8
0
  10
-34.697696
  20
0.830576
  30
0.000000
  40
0.125000
  50
135.000000
  51
-135.000000
  0
ARC
  8
0
  10
-34.697696
  20
0.830576
  30
0.000000
  40
0.125000
  50
45.000000
  51
135.000000
  0
LINE
  8
0
  10
-34.609308
  20
0.918964
  30
0.000000
  11
-34.234515
  21
0.918964
  31
0.000000
  0
ARC
  8
0
  10
-29.396126
  20
0.830576
  30
0.000000
  40
0.125000
  50
45.000000
  51
135.000000
  0
ARC
  8
0
  10
-29.396126
  20
0.830576
  30
0.000000
  40
0.125000
  50
-45.000000
  51
45.000000
  0
LINE
  8
0
  10
-29.307738
  20
0.742187
  30
0.000000
  11
-29.307738
  21
-0.872763
  31
0.000000
  0
ARC
  8
0
  10
-29.396126
  20
-0.961152
  30
0.000000
  40
0.125000
  50
-45.000000
  51
45.000000
  0
ARC
  8
0
  10
-29.396126
  20
-0.961152
  30
0.000000
  40
0.125000
  50
-135.000000
  51
-45.000000
  0
LINE
  8
0
  10
-29.484515
  20
-1.049540
  30
0.000000
  11
-29.859308
  21
-1.049540
  31
0.000000
  0
ARC
  8
0
  10
-29.947696
  20
-0.961152
  30
0.000000
  40
0.125000
  50
-135.000000
  51
-45.000000
  0
ARC
  8
0
  10
-29.947696
  20
-0.961152
  30
0.000000
  40
0.125000
  50
135.000000
  51
-135.000000
  0
LINE
  8
0
  10
-30.036084
  20
-0.872763
  30
0.000000
  11
-30.036084
  21
0.742187
  31
0.000000
  0
ARC
  8
0
  10
-29.947696
  20
0.830576
  30
0.000000
  40
0.125000
  50
135.000000
  51
-135.000000
  0
ARC
  8
0
  10
-29.947696
  20
0.830576
  30
0.000000
  40
0.125000
  50
45.000000
  51
135.000000
  0
LINE
  8
0
  10
-29.859308
  20
0.918964
  30
0.000000
  11
-29.484515
  21
0.918964
  31
0.000000
  0
ARC
  8
0
  10
-24.646126
  20
0.830576
  30
0.000000
  40
0.125000
  50
45.000000
  51
135.000000
  0
ARC
  8
0
  10
-24.646126
  20
0.830576
  30
0.000000
  40
0.125000
  50
-45.000000
  51
45.000000
  0
LINE
  8
0
  10
-24.557738
  20
0.742187
  30
0.000000
  11
-24.557738
  21
-0.872763
  31
0.000000
  0
ARC
  8
0
  10
-24.646126
  20
-0.961152
  30
0.000000
  40
0.125000
  50
-45.000000
  51
45.000000
  0
ARC
  8
0
  10
-24.646126
  20
-0.961152
  30
0.000000
  40
0.125000
  50
-135.000000
  51
-45.000000
  0
LINE
  8
0
  10
-24.734515
  20
-1.049540
  30
0.000000
  11
-25.109308
  21
-1.049540
  31
0.000000
  0
ARC
  8
0
  10
-25.197696
  20
-0.961152
  30
0.000000
  40
0.125000
  50
-135.000000
  51
-45.000000
  0
ARC
  8
0
  10
-25.197696
  20
-0.961152
  30
0.000000
  40
0.125000
  50
135.000000
  51
-135.000000
  0
LINE
  8
0
  10
-25.286084
  20
-0.872763
  30
0.000000
  11
-25.286084
  21
0.742187
  31
0.000000
  0
ARC
  8
0
  10
-25.197696
  20
0.830576
  30
0.000000
  40
0.125000
  50
135.000000
  51
-135.000000
  0
ARC
  8
0
  10
-25.197696
  20
0.830576
  30
0.000000
  40
0.125000
  50
45.000000
  51
135.000000
  0
LINE
  8
0
  10
-25.109308
  20
0.918964
  30
0.000000
  11
-24.734515
  21
0.918964
  31
0.000000
  0
ARC
  8
0
  10
-19.896126
  20
0.830576
  30
0.000000
  40
0.125000
  50
45.000000
  51
135.000000
  0
ARC
  8
0
  10
-19.896126
  20
0.830576
  30
0.000000
  40
0.125000
  50
-45.000000
  51
45.000000
  0
LINE
  8
0
  10
-19.807738
  20
0.742187
  30
0.000000
  11
-19.807738
  21
-0.872763
  31
0.000000
  0
ARC
  8
0
  10
-19.896126
  20
-0.961152
  30
0.000000
  40
0.125000
  50
-45.000000
  51
45.000000
  0
ARC
  8
0
  10
-19.896126
  20
-0.961152
  30
0.000000
  40
0.125000
  50
-135.000000
  51
-45.000000
  0
LINE
  8
0
  10
-19.984515
  20
-1.049540
  30
0.000000
  11
-20.359308
  21
-1.049540
  31
0.000000
  0
ARC
  8
0
  10
-20.447696
  20
-0.961152
  30
0.000000
  40
0.125000
  50
-135.000000
  51
-45.000000
  0
ARC
  8
0
  10
-20.447696
  20
-0.961152
  30
0.000000
  40
0.125000
  50
135.000000
  51
-135.000000
  0
LINE
  8
0
  10
-20.536084
  20
-0.872763
  30
0.000000
  11
-20.536084
  21
0.742187
  31
0.000000
  0
ARC
  8
0
  10
-20.447696
  20
0.830576
  30
0.000000
  40
0.125000
  50
135.000000
  51
-135.000000
  0
ARC
  8
0
  10
-20.447696
  20
0.830576
  30
0.000000
  40
0.125000
  50
45.000000
  51
135.000000
  0
LINE
  8
0
  10
-20.359308
  20
0.918964
  30
0.000000
  11
-19.984515
  21
0.918964
  31
0.000000
  0
ARC
  8
0
  10
-15.146126
  20
0.830576
  30
0.000000
  40
0.125000
  50
45.000000
  51
135.000000
  0
ARC
  8
0
  10
-15.146126
  20
0.830576
  30
0.000000
  40
0.125000
  50
-45.000000
  51
45.000000
  0
LINE
  8
0
  10
-15.057738
  20
0.742187
  30
0.000000
  11
-15.057738
  21
-0.872763
  31
0.000000
  0
ARC
  8
0
  10
-15.146126
  20
-0.961152
  30
0.000000
  40
0.125000
  50
-45.000000
  51
45.000000
  0
ARC
  8
0
  10
-15.146126
  20
-0.961152
  30
0.000000
  40
0.125000
  50
-135.000000
  51
-45.000000
  0
LINE
  8
0
  10
-15.234515
  20
-1.049540
  30
0.000000
  11
-15.609308
  21
-1.049540
  31
0.000000
  0
ARC
  8
0
  10
-15.697696
  20
-0.961152
  30
0.000000
  40
0.125000
  50
-135.000000
  51
-45.000000
  0
ARC
  8
0
  10
-15.697696
  20
-0.961152
  30
0.000000
  40
0.125000
  50
135.000000
  51
-135.000000
  0
LINE
  8
0
  10
-15.786084
  20
-0.872763
  30
0.000000
  11
-15.786084
  21
0.742187
  31
0.000000
  0
ARC
  8
0
  10
-15.697696
  20
0.830576
  30
0.000000
  40
0.125000
  50
135.000000
  51
-135.000000
  0
ARC
  8
0
  10
-15.697696
  20
0.830576
  30
0.000000
  40
0.125000
  50
45.000000
  51
135.000000
  0
LINE
  8
0
  10
-15.609308
  20
0.918964
  30
0.000000
  11
-15.234515
  21
0.918964
  31
0.000000
  0
ARC
  8
0
  10
-10.396126
  20
0.830576
  30
0.000000
  40
0.125000
  50
45.000000
  51
135.000000
  0
ARC
  8
0
  10
-10.396126
  20
0.830576
  30
0.000000
  40
0.125000
  50
-45.000000
  51
45.000000
  0
LINE
  8
0
  10
-10.307738
  20
0.742187
  30
0.000000
  11
-10.307738
  21
-0.872763
  31
0.000000
  0
ARC
  8
0
  10
-10.396126
  20
-0.961152
  30
0.000000
  40
0.125000
  50
-45.000000
  51
45.000000
  0
ARC
  8
0
  10
-10.396126
  20
-0.961152
  30
0.000000
  40
0.125000
  50
-135.000000
  51
-45.000000
  0
LINE
  8
0
  10
-10.484514
  20
-1.049540
  30
0.000000
  11
-10.859308
  21
-1.049540
  31
0.000000
  0
ARC
  8
0
  10
-10.947696
  20
-0.961152
  30
0.000000
  40
0.125000
  50
-135.000000
  51
-45.000000
  0
ARC
  8
0
  10
-10.947696
  20
-0.961152
  30
0.000000
  40
0.125000
  50
135.000000
  51
-135.000000
  0
LINE
  8
0
  10
-11.036084
  20
-0.872763
  30
0.000000
  11
-11.036084
  21
0.742187
  31
0.000000
  0
ARC
  8
0
  10
-10.947696
  20
0.830576
  30
0.000000
  40
0.125000
  50
135.000000
  51
-135.000000
  0
ARC
  8
0
  10
-10.947696
  20
0.830576
  30
0.000000
  40
0.125000
  50
45.000000
  51
135.000000
  0
LINE
  8
0
  10
-10.859308
  20
0.918964
  30
0.000000
  11
-10.484514
  21
0.918964
  31
0.000000
  0
ARC
  8
0
  10
-5.646126
  20
0.830576
  30
0.000000
  40
0.125000
  50
45.000000
  51
135.000000
  0
ARC
  8
0
  10
-5.646126
  20
0.830576
  30
0.000000
  40
0.125000
  50
-45.000000
  51
45.000000
  0
LINE
  8
0
  10
-5.557738
  20
0.742187
  30
0.000000
  11
-5.557738
  21
-0.872763
  31
0.000000
  0
ARC
  8
0
  10
-5.646126
  20
-0.961152
  30
0.000000
  40
0.125000
  50
-45.000000
  51
45.000000
  0
ARC
  8
0
  10
-5.646126
  20
-0.961152
  30
0.000000
  40
0.125000
  50
-135.000000
  51
-45.000000
  0
LINE
  8
0
  10
-5.734514
  20
-1.049540
  30
0.000000
  11
-6.109307
  21
-1.049540
  31
0.000000
  0
ARC
  8
0
  10
-6.197696
  20
-0.961152
  30
0.000000
  40
0.125000
  50
-135.000000
  51
-45.000000
  0
ARC
  8
0
  10
-6.197696
  20
-0.961152
  30
0.000000
  40
0.125000
  50
135.000000
  51
-135.000000
  0
LINE
  8
0
  10
-6.286084
  20
-0.872763
  30
0.000000
  11
-6.286084
  21
0.742187
  31
0.000000
  0
ARC
  8
0
  10
-6.197696
  20
0.830576
  30
0.000000
  40
0.125000
  50
135.000000
  51
-135.000000
  0
ARC
  8
0
  10
-6.197696
  20
0.830576
  30
0.000000
  40
0.125000
  50
45.000000
  51
135.000000
  0
LINE
  8
0
  10
-6.109307
  20
0.918964
  30
0.000000
  11
-5.734514
  21
0.918964
  31
0.000000
  0
ARC
  8
0
  10
-43.646127
  20
-5.138174
  30
0.000000
  40
0.125000
  50
45.000000
  51
135.000000
  0
ARC
  8
0
  10
-43.646127
  20
-5.138174
  30
0.000000
  40
0.125000
  50
-45.000000
  51
45.000000
  0
LINE
  8
0
  10
-43.557738
  20
-5.226563
  30
0.000000
  11
-43.557738
  21
-6.841513
  31
0.000000
  0
ARC
  8
0
  10
-43.646127
  20
-6.929902
  30
0.000000
  40
0.125000
  50
-45.000000
  51
45.000000
  0
ARC
  8
0
  10
-43.646127
  20
-6.929902
  30
0.000000
  40
0.125000
  50
-135.000000
  51
-45.000000
  0
LINE
  8
0
  10
-43.734515
  20
-7.018290
  30
0.000000
  11
-44.109308
  21
-7.018290
  31
0.000000
  0
ARC
  8
0
  10
-44.197696
  20
-6.929902
  30
0.000000
  40
0.125000
  50
-135.000000
  51
-45.000000
  0
ARC
  8
0
  10
-44.197696
  20
-6.929902
  30
0.000000
  40
0.125000
  50
135.000000
  51
-135.000000
  0
LINE
  8
0
  10
-44.286085
  20
-6.841513
  30
0.000000
  11
-44.286085
  21
-5.226563
  31
0.000000
  0
ARC
  8
0
  10
-44.197696
  20
-5.138174
  30
0.000000
  40
0.125000
  50
135.000000
  51
-135.000000
  0
ARC
  8
0
  10
-44.197696
  20
-5.138174
  30
0.000000
  40
0.125000
  50
45.000000
  51
135.000000
  0
LINE
  8
0
  10
-44.109308
  20
-5.049786
  30
0.000000
  11
-43.734515
  21
-5.049786
  31
0.000000
  0
ARC
  8
0
  10
-38.896127
  20
-5.138174
  30
0.000000
  40
0.125000
  50
45.000000
  51
135.000000
  0
ARC
  8
0
  10
-38.896127
  20
-5.138174
  30
0.000000
  40
0.125000
  50
-45.000000
  51
45.000000
  0
LINE
  8
0
  10
-38.807738
  20
-5.226563
  30
0.000000
  11
-38.807738
  21
-6.841513
  31
0.000000
  0
ARC
  8
0
  10
-38.896127
  20
-6.929902
  30
0.000000
  40
0.125000
  50
-45.000000
  51
45.000000
  0
ARC
  8
0
  10
-38.896127
  20
-6.929902
  30
0.000000
  40
0.125000
  50
-135.000000
  51
-45.000000
  0
LINE
  8
0
  10
-38.984515
  20
-7.018290
  30
0.000000
  11
-39.359308
  21
-7.018290
  31
0.000000
  0
ARC
  8
0
  10
-39.447696
  20
-6.929902
  30
0.000000
  40
0.125000
  50
-135.000000
  51
-45.000000
  0
ARC
  8
0
  10
-39.447696
  20
-6.929902
  30
0.000000
  40
0.125000
  50
135.000000
  51
-135.000000
  0
LINE
  8
0
  10
-39.536085
  20
-6.841513
  30
0.000000
  11
-39.536085
  21
-5.226563
  31
0.000000
  0
ARC
  8
0
  10
-39.447696
  20
-5.138174
  30
0.000000
  40
0.125000
  50
135.000000
  51
-135.000000
  0
ARC
  8
0
  10
-39.447696
  20
-5.138174
  30
0.000000
  40
0.125000
  50
45.000000
  51
135.000000
  0
LINE
  8
0
  10
-39.359308
  20
-5.049786
  30
0.000000
  11
-38.984515
  21
-5.049786
  31
0.000000
  0
ARC
  8
0
  10
-0.896126
  20
-5.138174
  30
0.000000
  40
0.125000
  50
45.000000
  51
135.000000
  0
ARC
  8
0
  10
-0.896126
  20
-5.138174
  30
0.000000
  40
0.125000
  50
-45.000000
  51
45.000000
  0
LINE
  8
0
  10
-0.807738
  20
-5.226563
  30
0.000000
  11
-0.807738
  21
-6.841513
  31
0.000000
  0
ARC
  8
0
  10
-0.896126
  20
-6.929902
  30
0.000000
  40
0.125000
  50
-45.000000
  51
45.000000
  0
ARC
  8
0
  10
-0.896126
  20
-6.929902
  30
0.000000
  40
0.125000
  50
-135.000000
  51
-45.000000
  0
LINE
  8
0
  10
-0.984514
  20
-7.018290
  30
0.000000
  11
-1.359307
  21
-7.018290
  31
0.000000
  0
ARC
  8
0
  10
-1.447696
  20
-6.929902
  30
0.000000
  40
0.125000
  50
-135.000000
  51
-45.000000
  0
ARC
  8
0
  10
-1.447696
  20
-6.929902
  30
0.000000
  40
0.125000
  50
135.000000
  51
-135.000000
  0
LINE
  8
0
  10
-1.536084
  20
-6.841513
  30
0.000000
  11
-1.536084
  21
-5.226563
  31
0.000000
  0
ARC
  8
0
  10
-1.447696
  20
-5.138174
  30
0.000000
  40
0.125000
  50
135.000000
  51
-135.000000
  0
ARC
  8
0
  10
-1.447696
  20
-5.138174
  30
0.000000
  40
0.125000
  50
45.000000
  51
135.000000
  0
LINE
  8
0
  10
-1.359307
  20
-5.049786
  30
0.000000
  11
-0.984514
  21
-5.049786
  31
0.000000
  0
ARC
  8
0
  10
-34.146126
  20
-5.138174
  30
0.000000
  40
0.125000
  50
45.000000
  51
135.000000
  0
ARC
  8
0
  10
-34.146126
  20
-5.138174
  30
0.000000
  40
0.125000
  50
-45.000000
  51
45.000000
  0
LINE
  8
0
  10
-34.057738
  20
-5.226563
  30
0.000000
  11
-34.057738
  21
-6.841513
  31
0.000000
  0
ARC
  8
0
  10
-34.146126
  20
-6.929902
  30
0.000000
  40
0.125000
  50
-45.000000
  51
45.000000
  0
ARC
  8
0
  10
-34.146126
  20
-6.929902
  30
0.000000
  40
0.125000
  50
-135.000000
  51
-45.000000
  0
LINE
  8
0
  10
-34.234515
  20
-7.018290
  30
0.000000
  11
-34.609308
  21
-7.018290
  31
0.000000
  0
ARC
  8
0
  10
-34.697696
  20
-6.929902
  30
0.000000
  40
0.125000
  50
-135.000000
  51
-45.000000
  0
ARC
  8
0
  10
-34.697696
  20
-6.929902
  30
0.000000
  40
0.125000
  50
135.000000
  51
-135.000000
  0
LINE
  8
0
  10
-34.786085
  20
-6.841513
  30
0.000000
  11
-34.786085
  21
-5.226563
  31
0.000000
  0
ARC
  8
0
  10
-34.697696
  20
-5.138174
  30
0.000000
  40
0.125000
  50
135.000000
  51
-135.000000
  0
ARC
  8
0
  10
-34.697696
  20
-5.138174
  30
0.000000
  40
0.125000
  50
45.000000
  51
135.000000
  0
LINE
  8
0
  10
-34.609308
  20
-5.049786
  30
0.000000
  11
-34.234515
  21
-5.049786
  31
0.000000
  0
ARC
  8
0
  10
-29.396126
  20
-5.138174
  30
0.000000
  40
0.125000
  50
45.000000
  51
135.000000
  0
ARC
  8
0
  10
-29.396126
  20
-5.138174
  30
0.000000
  40
0.125000
  50
-45.000000
  51
45.000000
  0
LINE
  8
0
  10
-29.307738
  20
-5.226563
  30
0.000000
  11
-29.307738
  21
-6.841513
  31
0.000000
  0
ARC
  8
0
  10
-29.396126
  20
-6.929902
  30
0.000000
  40
0.125000
  50
-45.000000
  51
45.000000
  0
ARC
  8
0
  10
-29.396126
  20
-6.929902
  30
0.000000
  40
0.125000
  50
-135.000000
  51
-45.000000
  0
LINE
  8
0
  10
-29.484515
  20
-7.018290
  30
0.000000
  11
-29.859308
  21
-7.018290
  31
0.000000
  0
ARC
  8
0
  10
-29.947696
  20
-6.929902
  30
0.000000
  40
0.125000
  50
-135.000000
  51
-45.000000
  0
ARC
  8
0
  10
-29.947696
  20
-6.929902
  30
0.000000
  40
0.125000
  50
135.000000
  51
-135.000000
  0
LINE
  8
0
  10
-30.036084
  20
-6.841513
  30
0.000000
  11
-30.036084
  21
-5.226563
  31
0.000000
  0
ARC
  8
0
  10
-29.947696
  20
-5.138174
  30
0.000000
  40
0.125000
  50
135.000000
  51
-135.000000
  0
ARC
  8
0
  10
-29.947696
  20
-5.138174
  30
0.000000
  40
0.125000
  50
45.000000
  51
135.000000
  0
LINE
  8
0
  10
-29.859308
  20
-5.049786
  30
0.000000
  11
-29.484515
  21
-5.049786
  31
0.000000
  0
ARC
  8
0
  10
-24.646126
  20
-5.138174
  30
0.000000
  40
0.125000
  50
45.000000
  51
135.000000
  0
ARC
  8
0
  10
-24.646126
  20
-5.138174
  30
0.000000
  40
0.125000
  50
-45.000000
  51
45.000000
  0
LINE
  8
0
  10
-24.557738
  20
-5.226563
  30
0.000000
  11
-24.557738
  21
-6.841513
  31
0.000000
  0
ARC
  8
0
  10
-24.646126
  20
-6.929902
  30
0.000000
  40
0.125000
  50
-45.000000
  51
45.000000
  0
ARC
  8
0
  10
-24.646126
  20
-6.929902
  30
0.000000
  40
0.125000
  50
-135.000000
  51
-45.000000
  0
LINE
  8
0
  10
-24.734515
  20
-7.018290
  30
0.000000
  11
-25.109308
  21
-7.018290
  31
0.000000
  0
ARC
  8
0
  10
-25.197696
  20
-6.929902
  30
0.000000
  40
0.125000
  50
-135.000000
  51
-45.000000
  0
ARC
  8
0
  10
-25.197696
  20
-6.929902
  30
0.000000
  40
0.125000
  50
135.000000
  51
-135.000000
  0
LINE
  8
0
  10
-25.286084
  20
-6.841513
  30
0.000000
  11
-25.286084
  21
-5.226563
  31
0.000000
  0
ARC
  8
0
  10
-25.197696
  20
-5.138174
  30
0.000000
  40
0.125000
  50
135.000000
  51
-135.000000
  0
ARC
  8
0
  10
-25.197696
  20
-5.138174
  30
0.000000
  40
0.125000
  50
45.000000
  51
135.000000
  0
LINE
  8
0
  10
-25.109308
  20
-5.049786
  30
0.000000
  11
-24.734515
  21
-5.049786
  31
0.000000
  0
ARC
  8
0
  10
-19.896126
  20
-5.138174
  30
0.000000
  40
0.125000
  50
45.000000
  51
135.000000
  0
ARC
  8
0
  10
-19.896126
  20
-5.138174
  30
0.000000
  40
0.125000
  50
-45.000000
  51
45.000000
  0
LINE
  8
0
  10
-19.807738
  20
-5.226563
  30
0.000000
  11
-19.807738
  21
-6.841513
  31
0.000000
  0
ARC
  8
0
  10
-19.896126
  20
-6.929902
  30
0.000000
  40
0.125000
  50
-45.000000
  51
45.000000
  0
ARC
  8
0
  10
-19.896126
  20
-6.929902
  30
0.000000
  40
0.125000
  50
-135.000000
  51
-45.000000
  0
LINE
  8
0
  10
-19.984515
  20
-7.018290
  30
0.000000
  11
-20.359308
  21
-7.018290
  31
0.000000
  0
ARC
  8
0
  10
-20.447696
  20
-6.929902
  30
0.000000
  40
0.125000
  50
-135.000000
  51
-45.000000
  0
ARC
  8
0
  10
-20.447696
  20
-6.929902
  30
0.000000
  40
0.125000
  50
135.000000
  51
-135.000000
  0
LINE
  8
0
  10
-20.536084
  20
-6.841513
  30
0.000000
  11
-20.536084
  21
-5.226563
  31
0.000000
  0
ARC
  8
0
  10
-20.447696
  20
-5.138174
  30
0.000000
  40
0.125000
  50
135.000000
  51
-135.000000
  0
ARC
  8
0
  10
-20.447696
  20
-5.138174
  30
0.000000
  40
0.125000
  50
45.000000
  51
135.000000
  0
LINE
  8
0
  10
-20.359308
  20
-5.049786
  30
0.000000
  11
-19.984515
  21
-5.049786
  31
0.000000
  0
ARC
  8
0
  10
-15.146126
  20
-5.138174
  30
0.000000
  40
0.125000
  50
45.000000
  51
135.000000
  0
ARC
  8
0
  10
-15.146126
  20
-5.138174
  30
0.000000
  40
0.125000
  50
-45.000000
  51
45.000000
  0
LINE
  8
0
  10
-15.057738
  20
-5.226563
  30
0.000000
  11
-15.057738
  21
-6.841513
  31
0.000000
  0
ARC
  8
0
  10
-15.146126
  20
-6.929902
  30
0.000000
  40
0.125000
  50
-45.000000
  51
45.000000
  0
ARC
  8
0
  10
-15.146126
  20
-6.929902
  30
0.000000
  40
0.125000
  50
-135.000000
  51
-45.000000
  0
LINE
  8
0
  10
-15.234515
  20
-7.018290
  30
0.000000
  11
-15.609308
  21
-7.018290
  31
0.000000
  0
ARC
  8
0
  10
-15.697696
  20
-6.929902
  30
0.000000
  40
0.125000
  50
-135.000000
  51
-45.000000
  0
ARC
  8
0
  10
-15.697696
  20
-6.929902
  30
0.000000
  40
0.125000
  50
135.000000
  51
-135.000000
  0
LINE
  8
0
  10
-15.786084
  20
-6.841513
  30
0.000000
  11
-15.786084
  21
-5.226563
  31
0.000000
  0
ARC
  8
0
  10
-15.697696
  20
-5.138174
  30
0.000000
  40
0.125000
  50
135.000000
  51
-135.000000
  0
ARC
  8
0
  10
-15.697696
  20
-5.138174
  30
0.000000
  40
0.125000
  50
45.000000
  51
135.000000
  0
LINE
  8
0
  10
-15.609308
  20
-5.049786
  30
0.000000
  11
-15.234515
  21
-5.049786
  31
0.000000
  0
ARC
  8
0
  10
-10.396126
  20
-5.138174
  30
0.000000
  40
0.125000
  50
45.000000
  51
135.000000
  0
ARC
  8
0
  10
-10.396126
  20
-5.138174
  30
0.000000
  40
0.125000
  50
-45.000000
  51
45.000000
  0
LINE
  8
0
  10
-10.307738
  20
-5.226563
  30
0.000000
  11
-10.307738
  21
-6.841513
  31
0.000000
  0
ARC
  8
0
  10
-10.396126
  20
-6.929902
  30
0.000000
  40
0.125000
  50
-45.000000
  51
45.000000
  0
ARC
  8
0
  10
-10.396126
  20
-6.929902
  30
0.000000
  40
0.125000
  50
-135.000000
  51
-45.000000
  0
LINE
  8
0
  10
-10.484514
  20
-7.018290
  30
0.000000
  11
-10.859308
  21
-7.018290
  31
0.000000
  0
ARC
  8
0
  10
-10.947696
  20
-6.929902
  30
0.000000
  40
0.125000
  50
-135.000000
  51
-45.000000
  0
ARC
  8
0
  10
-10.947696
  20
-6.929902
  30
0.000000
  40
0.125000
  50
135.000000
  51
-135.000000
  0
LINE
  8
0
  10
-11.036084
  20
-6.841513
  30
0.000000
  11
-11.036084
  21
-5.226563
  31
0.000000
  0
ARC
  8
0
  10
-10.947696
  20
-5.138174
  30
0.000000
  40
0.125000
  50
135.000000
  51
-135.000000
  0
ARC
  8
0
  10
-10.947696
  20
-5.138174
  30
0.000000
  40
0.125000
  50
45.000000
  51
135.000000
  0
LINE
  8
0
  10
-10.859308
  20
-5.049786
  30
0.000000
  11
-10.484514
  21
-5.049786
  31
0.000000
  0
ARC
  8
0
  10
-5.646126
  20
-5.138174
  30
0.000000
  40
0.125000
  50
45.000000
  51
135.000000
  0
ARC
  8
0
  10
-5.646126
  20
-5.138174
  30
0.000000
  40
0.125000
  50
-45.000000
  51
45.000000
  0
LINE
  8
0
  10
-5.557738
  20
-5.226563
  30
0.000000
  11
-5.557738
  21
-6.841513
  31
0.000000
  0
ARC
  8
0
  10
-5.646126
  20
-6.929902
  30
0.000000
  40
0.125000
  50
-45.000000
  51
45.000000
  0
ARC
  8
0
  10
-5.646126
  20
-6.929902
  30
0.000000
  40
0.125000
  50
-135.000000
  51
-45.000000
  0
LINE
  8
0
  10
-5.734514
  20
-7.018290
  30
0.000000
  11
-6.109307
  21
-7.018290
  31
0.000000
  0
ARC
  8
0
  10
-6.197696
  20
-6.929902
  30
0.000000
  40
0.125000
  50
-135.000000
  51
-45.000000
  0
ARC
  8
0
  10
-6.197696
  20
-6.929902
  30
0.000000
  40
0.125000
  50
135.000000
  51
-135.000000
  0
LINE
  8
0
  10
-6.286084
  20
-6.841513
  30
0.000000
  11
-6.286084
  21
-5.226563
  31
0.000000
  0
ARC
  8
0
  10
-6.197696
  20
-5.138174
  30
0.000000
  40
0.125000
  50
135.000000
  51
-135.000000
  0
ARC
  8
0
  10
-6.197696
  20
-5.138174
  30
0.000000
  40
0.125000
  50
45.000000
  51
135.000000
  0
LINE
  8
0
  10
-6.109307
  20
-5.049786
  30
0.000000
  11
-5.734514
  21
-5.049786
  31
0.000000
  0
ARC
  8
0
  10
-43.646127
  20
-11.106924
  30
0.000000
  40
0.125000
  50
45.000000
  51
135.000000
  0
ARC
  8
0
  10
-43.646127
  20
-11.106924
  30
0.000000
  40
0.125000
  50
-45.000000
  51
45.000000
  0
LINE
  8
0
  10
-43.557738
  20
-11.195313
  30
0.000000
  11
-43.557738
  21
-12.810263
  31
0.000000
  0
ARC
  8
0
  10
-43.646127
  20
-12.898652
  30
0.000000
  40
0.125000
  50
-45.000000
  51
45.000000
  0
ARC
  8
0
  10
-43.646127
  20
-12.898652
  30
0.000000
  40
0.125000
  50
-135.000000
  51
-45.000000
  0
LINE
  8
0
  10
-43.734515
  20
-12.987040
  30
0.000000
  11
-44.109308
  21
-12.987040
  31
0.000000
  0
ARC
  8
0
  10
-44.197696
  20
-12.898652
  30
0.000000
  40
0.125000
  50
-135.000000
  51
-45.000000
  0
ARC
  8
0
  10
-44.197696
  20
-12.898652
  30
0.000000
  40
0.125000
  50
135.000000
  51
-135.000000
  0
LINE
  8
0
  10
-44.286085
  20
-12.810263
  30
0.000000
  11
-44.286085
  21
-11.195313
  31
0.000000
  0
ARC
  8
0
  10
-44.197696
  20
-11.106924
  30
0.000000
  40
0.125000
  50
135.000000
  51
-135.000000
  0
ARC
  8
0
  10
-44.197696
  20
-11.106924
  30
0.000000
  40
0.125000
  50
45.000000
  51
135.000000
  0
LINE
  8
0
  10
-44.109308
  20
-11.018536
  30
0.000000
  11
-43.734515
  21
-11.018536
  31
0.000000
  0
ARC
  8
0
  10
-38.896127
  20
-11.106924
  30
0.000000
  40
0.125000
  50
45.000000
  51
135.000000
  0
ARC
  8
0
  10
-38.896127
  20
-11.106924
  30
0.000000
  40
0.125000
  50
-45.000000
  51
45.000000
  0
LINE
  8
0
  10
-38.807738
  20
-11.195313
  30
0.000000
  11
-38.807738
  21
-12.810263
  31
0.000000
  0
ARC
  8
0
  10
-38.896127
  20
-12.898652
  30
0.000000
  40
0.125000
  50
-45.000000
  51
45.000000
  0
ARC
  8
0
  10
-38.896127
  20
-12.898652
  30
0.000000
  40
0.125000
  50
-135.000000
  51
-45.000000
  0
LINE
  8
0
  10
-38.984515
  20
-12.987040
  30
0.000000
  11
-39.359308
  21
-12.987040
  31
0.000000
  0
ARC
  8
0
  10
-39.447696
  20
-12.898652
  30
0.000000
  40
0.125000
  50
-135.000000
  51
-45.000000
  0
ARC
  8
0
  10
-39.447696
  20
-12.898652
  30
0.000000
  40
0.125000
  50
135.000000
  51
-135.000000
  0
LINE
  8
0
  10
-39.536085
  20
-12.810263
  30
0.000000
  11
-39.536085
  21
-11.195313
  31
0.000000
  0
ARC
  8
0
  10
-39.447696
  20
-11.106924
  30
0.000000
  40
0.125000
  50
135.000000
  51
-135.000000
  0
ARC
  8
0
  10
-39.447696
  20
-11.106924
  30
0.000000
  40
0.125000
  50
45.000000
  51
135.000000
  0
LINE
  8
0
  10
-39.359308
  20
-11.018536
  30
0.000000
  11
-38.984515
  21
-11.018536
  31
0.000000
  0
ARC
  8
0
  10
-0.896126
  20
-11.106924
  30
0.000000
  40
0.125000
  50
45.000000
  51
135.000000
  0
ARC
  8
0
  10
-0.896126
  20
-11.106924
  30
0.000000
  40
0.125000
  50
-45.000000
  51
45.000000
  0
LINE
  8
0
  10
-0.807738
  20
-11.195313
  30
0.000000
  11
-0.807738
  21
-12.810263
  31
0.000000
  0
ARC
  8
0
  10
-0.896126
  20
-12.898652
  30
0.000000
  40
0.125000
  50
-45.000000
  51
45.000000
  0
ARC
  8
0
  10
-0.896126
  20
-12.898652
  30
0.000000
  40
0.125000
  50
-135.000000
  51
-45.000000
  0
LINE
  8
0
  10
-0.984514
  20
-12.987040
  30
0.000000
  11
-1.359307
  21
-12.987040
  31
0.000000
  0
ARC
  8
0
  10
-1.447696
  20
-12.898652
  30
0.000000
  40
0.125000
  50
-135.000000
  51
-45.000000
  0
ARC
  8
0
  10
-1.447696
  20
-12.898652
  30
0.000000
  40
0.125000
  50
135.000000
  51
-135.000000
  0
LINE
  8
0
  10
-1.536084
  20
-12.810263
  30
0.000000
  11
-1.536084
  21
-11.195313
  31
0.000000
  0
ARC
  8
0
  10
-1.447696
  20
-11.106924
  30
0.000000
  40
0.125000
  50
135.000000
  51
-135.000000
  0
ARC
  8
0
  10
-1.447696
  20
-11.106924
  30
0.000000
  40
0.125000
  50
45.000000
  51
135.000000
  0
LINE
  8
0
  10
-1.359307
  20
-11.018536
  30
0.000000
  11
-0.984514
  21
-11.018536
  31
0.000000
  0
ARC
  8
0
  10
-34.146126
  20
-11.106924
  30
0.000000
  40
0.125000
  50
45.000000
  51
135.000000
  0
ARC
  8
0
  10
-34.146126
  20
-11.106924
  30
0.000000
  40
0.125000
  50
-45.000000
  51
45.000000
  0
LINE
  8
0
  10
-34.057738
  20
-11.195313
  30
0.000000
  11
-34.057738
  21
-12.810263
  31
0.000000
  0
ARC
  8
0
  10
-34.146126
  20
-12.898652
  30
0.000000
  40
0.125000
  50
-45.000000
  51
45.000000
  0
ARC
  8
0
  10
-34.146126
  20
-12.898652
  30
0.000000
  40
0.125000
  50
-135.000000
  51
-45.000000
  0
LINE
  8
0
  10
-34.234515
  20
-12.987040
  30
0.000000
  11
-34.609308
  21
-12.987040
  31
0.000000
  0
ARC
  8
0
  10
-34.697696
  20
-12.898652
  30
0.000000
  40
0.125000
  50
-135.000000
  51
-45.000000
  0
ARC
  8
0
  10
-34.697696
  20
-12.898652
  30
0.000000
  40
0.125000
  50
135.000000
  51
-135.000000
  0
LINE
  8
0
  10
-34.786085
  20
-12.810263
  30
0.000000
  11
-34.786085
  21
-11.195313
  31
0.000000
  0
ARC
  8
0
  10
-34.697696
  20
-11.106924
  30
0.000000
  40
0.125000
  50
135.000000
  51
-135.000000
  0
ARC
  8
0
  10
-34.697696
  20
-11.106924
  30
0.000000
  40
0.125000
  50
45.000000
  51
135.000000
  0
LINE
  8
0
  10
-34.609308
  20
-11.018536
  30
0.000000
  11
-34.234515
  21
-11.018536
  31
0.000000
  0
ARC
  8
0
  10
-29.396126
  20
-11.106924
  30
0.000000
  40
0.125000
  50
45.000000
  51
135.000000
  0
ARC
  8
0
  10
-29.396126
  20
-11.106924
  30
0.000000
  40
0.125000
  50
-45.000000
  51
45.000000
  0
LINE
  8
0
  10
-29.307738
  20
-11.195313
  30
0.000000
  11
-29.307738
  21
-12.810263
  31
0.000000
  0
ARC
  8
0
  10
-29.396126
  20
-12.898652
  30
0.000000
  40
0.125000
  50
-45.000000
  51
45.000000
  0
ARC
  8
0
  10
-29.396126
  20
-12.898652
  30
0.000000
  40
0.125000
  50
-135.000000
  51
-45.000000
  0
LINE
  8
0
  10
-29.484515
  20
-12.987040
  30
0.000000
  11
-29.859308
  21
-12.987040
  31
0.000000
  0
ARC
  8
0
  10
-29.947696
  20
-12.898652
  30
0.000000
  40
0.125000
  50
-135.000000
  51
-45.000000
  0
ARC
  8
0
  10
-29.947696
  20
-12.898652
  30
0.000000
  40
0.125000
  50
135.000000
  51
-135.000000
  0
LINE
  8
0
  10
-30.036084
  20
-12.810263
  30
0.000000
  11
-30.036084
  21
-11.195313
  31
0.000000
  0
ARC
  8
0
  10
-29.947696
  20
-11.106924
  30
0.000000
  40
0.125000
  50
135.000000
  51
-135.000000
  0
ARC
  8
0
  10
-29.947696
  20
-11.106924
  30
0.000000
  40
0.125000
  50
45.000000
  51
135.000000
  0
LINE
  8
0
  10
-29.859308
  20
-11.018536
  30
0.000000
  11
-29.484515
  21
-11.018536
  31
0.000000
  0
ARC
  8
0
  10
-24.646126
  20
-11.106924
  30
0.000000
  40
0.125000
  50
45.000000
  51
135.000000
  0
ARC
  8
0
  10
-24.646126
  20
-11.106924
  30
0.000000
  40
0.125000
  50
-45.000000
  51
45.000000
  0
LINE
  8
0
  10
-24.557738
  20
-11.195313
  30
0.000000
  11
-24.557738
  21
-12.810263
  31
0.000000
  0
ARC
  8
0
  10
-24.646126
  20
-12.898652
  30
0.000000
  40
0.125000
  50
-45.000000
  51
45.000000
  0
ARC
  8
0
  10
-24.646126
  20
-12.898652
  30
0.000000
  40
0.125000
  50
-135.000000
  51
-45.000000
  0
LINE
  8
0
  10
-24.734515
  20
-12.987040
  30
0.000000
  11
-25.109308
  21
-12.987040
  31
0.000000
  0
ARC
  8
0
  10
-25.197696
  20
-12.898652
  30
0.000000
  40
0.125000
  50
-135.000000
  51
-45.000000
  0
ARC
  8
0
  10
-25.197696
  20
-12.898652
  30
0.000000
  40
0.125000
  50
135.000000
  51
-135.000000
  0
LINE
  8
0
  10
-25.286084
  20
-12.810263
  30
0.000000
  11
-25.286084
  21
-11.195313
  31
0.000000
  0
ARC
  8
0
  10
-25.197696
  20
-11.106924
  30
0.000000
  40
0.125000
  50
135.000000
  51
-135.000000
  0
ARC
  8
0
  10
-25.197696
  20
-11.106924
  30
0.000000
  40
0.125000
  50
45.000000
  51
135.000000
  0
LINE
  8
0
  10
-25.109308
  20
-11.018536
  30
0.000000
  11
-24.734515
  21
-11.018536
  31
0.000000
  0
ARC
  8
0
  10
-19.896126
  20
-11.106924
  30
0.000000
  40
0.125000
  50
45.000000
  51
135.000000
  0
ARC
  8
0
  10
-19.896126
  20
-11.106924
  30
0.000000
  40
0.125000
  50
-45.000000
  51
45.000000
  0
LINE
  8
0
  10
-19.807738
  20
-11.195313
  30
0.000000
  11
-19.807738
  21
-12.810263
  31
0.000000
  0
ARC
  8
0
  10
-19.896126
  20
-12.898652
  30
0.000000
  40
0.125000
  50
-45.000000
  51
45.000000
  0
ARC
  8
0
  10
-19.896126
  20
-12.898652
  30
0.000000
  40
0.125000
  50
-135.000000
  51
-45.000000
  0
LINE
  8
0
  10
-19.984515
  20
-12.987040
  30
0.000000
  11
-20.359308
  21
-12.987040
  31
0.000000
  0
ARC
  8
0
  10
-20.447696
  20
-12.898652
  30
0.000000
  40
0.125000
  50
-135.000000
  51
-45.000000
  0
ARC
  8
0
  10
-20.447696
  20
-12.898652
  30
0.000000
  40
0.125000
  50
135.000000
  51
-135.000000
  0
LINE
  8
0
  10
-20.536084
  20
-12.810263
  30
0.000000
  11
-20.536084
  21
-11.195313
  31
0.000000
  0
ARC
  8
0
  10
-20.447696
  20
-11.106924
  30
0.000000
  40
0.125000
  50
135.000000
  51
-135.000000
  0
ARC
  8
0
  10
-20.447696
  20
-11.106924
  30
0.000000
  40
0.125000
  50
45.000000
  51
135.000000
  0
LINE
  8
0
  10
-20.359308
  20
-11.018536
  30
0.000000
  11
-19.984515
  21
-11.018536
  31
0.000000
  0
ARC
  8
0
  10
-15.146126
  20
-11.106924
  30
0.000000
  40
0.125000
  50
45.000000
  51
135.000000
  0
ARC
  8
0
  10
-15.146126
  20
-11.106924
  30
0.000000
  40
0.125000
  50
-45.000000
  51
45.000000
  0
LINE
  8
0
  10
-15.057738
  20
-11.195313
  30
0.000000
  11
-15.057738
  21
-12.810263
  31
0.000000
  0
ARC
  8
0
  10
-15.146126
  20
-12.898652
  30
0.000000
  40
0.125000
  50
-45.000000
  51
45.000000
  0
ARC
  8
0
  10
-15.146126
  20
-12.898652
  30
0.000000
  40
0.125000
  50
-135.000000
  51
-45.000000
  0
LINE
  8
0
  10
-15.234515
  20
-12.987040
  30
0.000000
  11
-15.609308
  21
-12.987040
  31
0.000000
  0
ARC
  8
0
  10
-15.697696
  20
-12.898652
  30
0.000000
  40
0.125000
  50
-135.000000
  51
-45.000000
  0
ARC
  8
0
  10
-15.697696
  20
-12.898652
  30
0.000000
  40
0.125000
  50
135.000000
  51
-135.000000
  0
LINE
  8
0
  10
-15.786084
  20
-12.810263
  30
0.000000
  11
-15.786084
  21
-11.195313
  31
0.000000
  0
ARC
  8
0
  10
-15.697696
  20
-11.106924
  30
0.000000
  40
0.125000
  50
135.000000
  51
-135.000000
  0
ARC
  8
0
  10
-15.697696
  20
-11.106924
  30
0.000000
  40
0.125000
  50
45.000000
  51
135.000000
  0
LINE
  8
0
  10
-15.609308
  20
-11.018536
  30
0.000000
  11
-15.234515
  21
-11.018536
  31
0.000000
  0
ARC
  8
0
  10
-10.396126
  20
-11.106924
  30
0.000000
  40
0.125000
  50
45.000000
  51
135.000000
  0
ARC
  8
0
  10
-10.396126
  20
-11.106924
  30
0.000000
  40
0.125000
  50
-45.000000
  51
45.000000
  0
LINE
  8
0
  10
-10.307738
  20
-11.195313
  30
0.000000
  11
-10.307738
  21
-12.810263
  31
0.000000
  0
ARC
  8
0
  10
-10.396126
  20
-12.898652
  30
0.000000
  40
0.125000
  50
-45.000000
  51
45.000000
  0
ARC
  8
0
  10
-10.396126
  20
-12.898652
  30
0.000000
  40
0.125000
  50
-135.000000
  51
-45.000000
  0
LINE
  8
0
  10
-10.484514
  20
-12.987040
  30
0.000000
  11
-10.859308
  21
-12.987040
  31
0.000000
  0
ARC
  8
0
  10
-10.947696
  20
-12.898652
  30
0.000000
  40
0.125000
  50
-135.000000
  51
-45.000000
  0
ARC
  8
0
  10
-10.947696
  20
-12.898652
  30
0.000000
  40
0.125000
  50
135.000000
  51
-135.000000
  0
LINE
  8
0
  10
-11.036084
  20
-12.810263
  30
0.000000
  11
-11.036084
  21
-11.195313
  31
0.000000
  0
ARC
  8
0
  10
-10.947696
  20
-11.106924
  30
0.000000
  40
0.125000
  50
135.000000
  51
-135.000000
  0
ARC
  8
0
  10
-10.947696
  20
-11.106924
  30
0.000000
  40
0.125000
  50
45.000000
  51
135.000000
  0
LINE
  8
0
  10
-10.859308
  20
-11.018536
  30
0.000000
  11
-10.484514
  21
-11.018536
  31
0.000000
  0
ARC
  8
0
  10
-5.646126
  20
-11.106924
  30
0.000000
  40
0.125000
  50
45.000000
  51
135.000000
  0
ARC
  8
0
  10
-5.646126
  20
-11.106924
  30
0.000000
  40
0.125000
  50
-45.000000
  51
45.000000
  0
LINE
  8
0
  10
-5.557738
  20
-11.195313
  30
0.000000
  11
-5.557738
  21
-12.810263
  31
0.000000
  0
ARC
  8
0
  10
-5.646126
  20
-12.898652
  30
0.000000
  40
0.125000
  50
-45.000000
  51
45.000000
  0
ARC
  8
0
  10
-5.646126
  20
-12.898652
  30
0.000000
  40
0.125000
  50
-135.000000
  51
-45.000000
  0
LINE
  8
0
  10
-5.734514
  20
-12.987040
  30
0.000000
  11
-6.109307
  21
-12.987040
  31
0.000000
  0
ARC
  8
0
  10
-6.197696
  20
-12.898652
  30
0.000000
  40
0.125000
  50
-135.000000
  51
-45.000000
  0
ARC
  8
0
  10
-6.197696
  20
-12.898652
  30
0.000000
  40
0.125000
  50
135.000000
  51
-135.000000
  0
LINE
  8
0
  10
-6.286084
  20
-12.810263
  30
0.000000
  11
-6.286084
  21
-11.195313
  31
0.000000
  0
ARC
  8
0
  10
-6.197696
  20
-11.106924
  30
0.000000
  40
0.125000
  50
135.000000
  51
-135.000000
  0
ARC
  8
0
  10
-6.197696
  20
-11.106924
  30
0.000000
  40
0.125000
  50
45.000000
  51
135.000000
  0
LINE
  8
0
  10
-6.109307
  20
-11.018536
  30
0.000000
  11
-5.734514
  21
-11.018536
  31
0.000000
  0
ARC
  8
0
  10
-43.646127
  20
-17.075675
  30
0.000000
  40
0.125000
  50
45.000000
  51
135.000000
  0
ARC
  8
0
  10
-43.646127
  20
-17.075675
  30
0.000000
  40
0.125000
  50
-45.000000
  51
45.000000
  0
LINE
  8
0
  10
-43.557738
  20
-17.164063
  30
0.000000
  11
-43.557738
  21
-18.779013
  31
0.000000
  0
ARC
  8
0
  10
-43.646127
  20
-18.867402
  30
0.000000
  40
0.125000
  50
-45.000000
  51
45.000000
  0
ARC
  8
0
  10
-43.646127
  20
-18.867402
  30
0.000000
  40
0.125000
  50
-135.000000
  51
-45.000000
  0
LINE
  8
0
  10
-43.734515
  20
-18.955790
  30
0.000000
  11
-44.109308
  21
-18.955790
  31
0.000000
  0
ARC
  8
0
  10
-44.197696
  20
-18.867402
  30
0.000000
  40
0.125000
  50
-135.000000
  51
-45.000000
  0
ARC
  8
0
  10
-44.197696
  20
-18.867402
  30
0.000000
  40
0.125000
  50
135.000000
  51
-135.000000
  0
LINE
  8
0
  10
-44.286085
  20
-18.779013
  30
0.000000
  11
-44.286085
  21
-17.164063
  31
0.000000
  0
ARC
  8
0
  10
-44.197696
  20
-17.075675
  30
0.000000
  40
0.125000
  50
135.000000
  51
-135.000000
  0
ARC
  8
0
  10
-44.197696
  20
-17.075675
  30
0.000000
  40
0.125000
  50
45.000000
  51
135.000000
  0
LINE
  8
0
  10
-44.109308
  20
-16.987286
  30
0.000000
  11
-43.734515
  21
-16.987286
  31
0.000000
  0
ARC
  8
0
  10
-38.896127
  20
-17.075675
  30
0.000000
  40
0.125000
  50
45.000000
  51
135.000000
  0
ARC
  8
0
  10
-38.896127
  20
-17.075675
  30
0.000000
  40
0.125000
  50
-45.000000
  51
45.000000
  0
LINE
  8
0
  10
-38.807738
  20
-17.164063
  30
0.000000
  11
-38.807738
  21
-18.779013
  31
0.000000
  0
ARC
  8
0
  10
-38.896127
  20
-18.867402
  30
0.000000
  40
0.125000
  50
-45.000000
  51
45.000000
  0
ARC
  8
0
  10
-38.896127
  20
-18.867402
  30
0.000000
  40
0.125000
  50
-135.000000
  51
-45.000000
  0
LINE
  8
0
  10
-38.984515
  20
-18.955790
  30
0.000000
  11
-39.359308
  21
-18.955790
  31
0.000000
  0
ARC
  8
0
  10
-39.447696
  20
-18.867402
  30
0.000000
  40
0.125000
  50
-135.000000
  51
-45.000000
  0
ARC
  8
0
  10
-39.447696
  20
-18.867402
  30
0.000000
  40
0.125000
  50
135.000000
  51
-135.000000
  0
LINE
  8
0
  10
-39.536085
  20
-18.779013
  30
0.000000
  11
-39.536085
  21
-17.164063
  31
0.000000
  0
ARC
  8
0
  10
-39.447696
  20
-17.075675
  30
0.000000
  40
0.125000
  50
135.000000
  51
-135.000000
  0
ARC
  8
0
  10
-39.447696
  20
-17.075675
  30
0.000000
  40
0.125000
  50
45.000000
  51
135.000000
  0
LINE
  8
0
  10
-39.359308
  20
-16.987286
  30
0.000000
  11
-38.984515
  21
-16.987286
  31
0.000000
  0
ARC
  8
0
  10
-0.896126
  20
-17.075675
  30
0.000000
  40
0.125000
  50
45.000000
  51
135.000000
  0
ARC
  8
0
  10
-0.896126
  20
-17.075675
  30
0.000000
  40
0.125000
  50
-45.000000
  51
45.000000
  0
LINE
  8
0
  10
-0.807738
  20
-17.164063
  30
0.000000
  11
-0.807738
  21
-18.779013
  31
0.000000
  0
ARC
  8
0
  10
-0.896126
  20
-18.867402
  30
0.000000
  40
0.125000
  50
-45.000000
  51
45.000000
  0
ARC
  8
0
  10
-0.896126
  20
-18.867402
  30
0.000000
  40
0.125000
  50
-135.000000
  51
-45.000000
  0
LINE
  8
0
  10
-0.984514
  20
-18.955790
  30
0.000000
  11
-1.359307
  21
-18.955790
  31
0.000000
  0
ARC
  8
0
  10
-1.447696
  20
-18.867402
  30
0.000000
  40
0.125000
  50
-135.000000
  51
-45.000000
  0
ARC
  8
0
  10
-1.447696
  20
-18.867402
  30
0.000000
  40
0.125000
  50
135.000000
  51
-135.000000
  0
LINE
  8
0
  10
-1.536084
  20
-18.779013
  30
0.000000
  11
-1.536084
  21
-17.164063
  31
0.000000
  0
ARC
  8
0
  10
-1.447696
  20
-17.075675
  30
0.000000
  40
0.125000
  50
135.000000
  51
-135.000000
  0
ARC
  8
0
  10
-1.447696
  20
-17.075675
  30
0.000000
  40
0.125000
  50
45.000000
  51
135.000000
  0
LINE
  8
0
  10
-1.359307
  20
-16.987286
  30
0.000000
  11
-0.984514
  21
-16.987286
  31
0.000000
  0
ARC
  8
0
  10
-34.146126
  20
-17.075675
  30
0.000000
  40
0.125000
  50
45.000000
  51
135.000000
  0
ARC
  8
0
  10
-34.146126
  20
-17.075675
  30
0.000000
  40
0.125000
  50
-45.000000
  51
45.000000
  0
LINE
  8
0
  10
-34.057738
  20
-17.164063
  30
0.000000
  11
-34.057738
  21
-18.779013
  31
0.000000
  0
ARC
  8
0
  10
-34.146126
  20
-18.867402
  30
0.000000
  40
0.125000
  50
-45.000000
  51
45.000000
  0
ARC
  8
0
  10
-34.146126
  20
-18.867402
  30
0.000000
  40
0.125000
  50
-135.000000
  51
-45.000000
  0
LINE
  8
0
  10
-34.234515
  20
-18.955790
  30
0.000000
  11
-34.609308
  21
-18.955790
  31
0.000000
  0
ARC
  8
0
  10
-34.697696
  20
-18.867402
  30
0.000000
  40
0.125000
  50
-135.000000
  51
-45.000000
  0
ARC
  8
0
  10
-34.697696
  20
-18.867402
  30
0.000000
  40
0.125000
  50
135.000000
  51
-135.000000
  0
LINE
  8
0
  10
-34.786085
  20
-18.779013
  30
0.000000
  11
-34.786085
  21
-17.164063
  31
0.000000
  0
ARC
  8
0
  10
-34.697696
  20
-17.075675
  30
0.000000
  40
0.125000
  50
135.000000
  51
-135.000000
  0
ARC
  8
0
  10
-34.697696
  20
-17.075675
  30
0.000000
  40
0.125000
  50
45.000000
  51
135.000000
  0
LINE
  8
0
  10
-34.609308
  20
-16.987286
  30
0.000000
  11
-34.234515
  21
-16.987286
  31
0.000000
  0
ARC
  8
0
  10
-29.396126
  20
-17.075675
  30
0.000000
  40
0.125000
  50
45.000000
  51
135.000000
  0
ARC
  8
0
  10
-29.396126
  20
-17.075675
  30
0.000000
  40
0.125000
  50
-45.000000
  51
45.000000
  0
LINE
  8
0
  10
-29.307738
  20
-17.164063
  30
0.000000
  11
-29.307738
  21
-18.779013
  31
0.000000
  0
ARC
  8
0
  10
-29.396126
  20
-18.867402
  30
0.000000
  40
0.125000
  50
-45.000000
  51
45.000000
  0
ARC
  8
0
  10
-29.396126
  20
-18.867402
  30
0.000000
  40
0.125000
  50
-135.000000
  51
-45.000000
  0
LINE
  8
0
  10
-29.484515
  20
-18.955790
  30
0.000000
  11
-29.859308
  21
-18.955790
  31
0.000000
  0
ARC
  8
0
  10
-29.947696
  20
-18.867402
  30
0.000000
  40
0.125000
  50
-135.000000
  51
-45.000000
  0
ARC
  8
0
  10
-29.947696
  20
-18.867402
  30
0.000000
  40
0.125000
  50
135.000000
  51
-135.000000
  0
LINE
  8
0
  10
-30.036084
  20
-18.779013
  30
0.000000
  11
-30.036084
  21
-17.164063
  31
0.000000
  0
ARC
  8
0
  10
-29.947696
  20
-17.075675
  30
0.000000
  40
0.125000
  50
135.000000
  51
-135.000000
  0
ARC
  8
0
  10
-29.947696
  20
-17.075675
  30
0.000000
  40
0.125000
  50
45.000000
  51
135.000000
  0
LINE
  8
0
  10
-29.859308
  20
-16.987286
  30
0.000000
  11
-29.484515
  21
-16.987286
  31
0.000000
  0
ARC
  8
0
  10
-24.646126
  20
-17.075675
  30
0.000000
  40
0.125000
  50
45.000000
  51
135.000000
  0
ARC
  8
0
  10
-24.646126
  20
-17.075675
  30
0.000000
  40
0.125000
  50
-45.000000
  51
45.000000
  0
LINE
  8
0
  10
-24.557738
  20
-17.164063
  30
0.000000
  11
-24.557738
  21
-18.779013
  31
0.000000
  0
ARC
  8
0
  10
-24.646126
  20
-18.867402
  30
0.000000
  40
0.125000
  50
-45.000000
  51
45.000000
  0
ARC
  8
0
  10
-24.646126
  20
-18.867402
  30
0.000000
  40
0.125000
  50
-135.000000
  51
-45.000000
  0
LINE
  8
0
  10
-24.734515
  20
-18.955790
  30
0.000000
  11
-25.109308
  21
-18.955790
  31
0.000000
  0
ARC
  8
0
  10
-25.197696
  20
-18.867402
  30
0.000000
  40
0.125000
  50
-135.000000
  51
-45.000000
  0
ARC
  8
0
  10
-25.197696
  20
-18.867402
  30
0.000000
  40
0.125000
  50
135.000000
  51
-135.000000
  0
LINE
  8
0
  10
-25.286084
  20
-18.779013
  30
0.000000
  11
-25.286084
  21
-17.164063
  31
0.000000
  0
ARC
  8
0
  10
-25.197696
  20
-17.075675
  30
0.000000
  40
0.125000
  50
135.000000
  51
-135.000000
  0
ARC
  8
0
  10
-25.197696
  20
-17.075675
  30
0.000000
  40
0.125000
  50
45.000000
  51
135.000000
  0
LINE
  8
0
  10
-25.109308
  20
-16.987286
  30
0.000000
  11
-24.734515
  21
-16.987286
  31
0.000000
  0
ARC
  8
0
  10
-19.896126
  20
-17.075675
  30
0.000000
  40
0.125000
  50
45.000000
  51
135.000000
  0
ARC
  8
0
  10
-19.896126
  20
-17.075675
  30
0.000000
  40
0.125000
  50
-45.000000
  51
45.000000
  0
LINE
  8
0
  10
-19.807738
  20
-17.164063
  30
0.000000
  11
-19.807738
  21
-18.779013
  31
0.000000
  0
ARC
  8
0
  10
-19.896126
  20
-18.867402
  30
0.000000
  40
0.125000
  50
-45.000000
  51
45.000000
  0
ARC
  8
0
  10
-19.896126
  20
-18.867402
  30
0.000000
  40
0.125000
  50
-135.000000
  51
-45.000000
  0
LINE
  8
0
  10
-19.984515
  20
-18.955790
  30
0.000000
  11
-20.359308
  21
-18.955790
  31
0.000000
  0
ARC
  8
0
  10
-20.447696
  20
-18.867402
  30
0.000000
  40
0.125000
  50
-135.000000
  51
-45.000000
  0
ARC
  8
0
  10
-20.447696
  20
-18.867402
  30
0.000000
  40
0.125000
  50
135.000000
  51
-135.000000
  0
LINE
  8
0
  10
-20.536084
  20
-18.779013
  30
0.000000
  11
-20.536084
  21
-17.164063
  31
0.000000
  0
ARC
  8
0
  10
-20.447696
  20
-17.075675
  30
0.000000
  40
0.125000
  50
135.000000
  51
-135.000000
  0
ARC
  8
0
  10
-20.447696
  20
-17.075675
  30
0.000000
  40
0.125000
  50
45.000000
  51
135.000000
  0
LINE
  8
0
  10
-20.359308
  20
-16.987286
  30
0.000000
  11
-19.984515
  21
-16.987286
  31
0.000000
  0
ARC
  8
0
  10
-15.146126
  20
-17.075675
  30
0.000000
  40
0.125000
  50
45.000000
  51
135.000000
  0
ARC
  8
0
  10
-15.146126
  20
-17.075675
  30
0.000000
  40
0.125000
  50
-45.000000
  51
45.000000
  0
LINE
  8
0
  10
-15.057738
  20
-17.164063
  30
0.000000
  11
-15.057738
  21
-18.779013
  31
0.000000
  0
ARC
  8
0
  10
-15.146126
  20
-18.867402
  30
0.000000
  40
0.125000
  50
-45.000000
  51
45.000000
  0
ARC
  8
0
  10
-15.146126
  20
-18.867402
  30
0.000000
  40
0.125000
  50
-135.000000
  51
-45.000000
  0
LINE
  8
0
  10
-15.234515
  20
-18.955790
  30
0.000000
  11
-15.609308
  21
-18.955790
  31
0.000000
  0
ARC
  8
0
  10
-15.697696
  20
-18.867402
  30
0.000000
  40
0.125000
  50
-135.000000
  51
-45.000000
  0
ARC
  8
0
  10
-15.697696
  20
-18.867402
  30
0.000000
  40
0.125000
  50
135.000000
  51
-135.000000
  0
LINE
  8
0
  10
-15.786084
  20
-18.779013
  30
0.000000
  11
-15.786084
  21
-17.164063
  31
0.000000
  0
ARC
  8
0
  10
-15.697696
  20
-17.075675
  30
0.000000
  40
0.125000
  50
135.000000
  51
-135.000000
  0
ARC
  8
0
  10
-15.697696
  20
-17.075675
  30
0.000000
  40
0.125000
  50
45.000000
  51
135.000000
  0
LINE
  8
0
  10
-15.609308
  20
-16.987286
  30
0.000000
  11
-15.234515
  21
-16.987286
  31
0.000000
  0
ARC
  8
0
  10
-10.396126
  20
-17.075675
  30
0.000000
  40
0.125000
  50
45.000000
  51
135.000000
  0
ARC
  8
0
  10
-10.396126
  20
-17.075675
  30
0.000000
  40
0.125000
  50
-45.000000
  51
45.000000
  0
LINE
  8
0
  10
-10.307738
  20
-17.164063
  30
0.000000
  11
-10.307738
  21
-18.779013
  31
0.000000
  0
ARC
  8
0
  10
-10.396126
  20
-18.867402
  30
0.000000
  40
0.125000
  50
-45.000000
  51
45.000000
  0
ARC
  8
0
  10
-10.396126
  20
-18.867402
  30
0.000000
  40
0.125000
  50
-135.000000
  51
-45.000000
  0
LINE
  8
0
  10
-10.484514
  20
-18.955790
  30
0.000000
  11
-10.859308
  21
-18.955790
  31
0.000000
  0
ARC
  8
0
  10
-10.947696
  20
-18.867402
  30
0.000000
  40
0.125000
  50
-135.000000
  51
-45.000000
  0
ARC
  8
0
  10
-10.947696
  20
-18.867402
  30
0.000000
  40
0.125000
  50
135.000000
  51
-135.000000
  0
LINE
  8
0
  10
-11.036084
  20
-18.779013
  30
0.000000
  11
-11.036084
  21
-17.164063
  31
0.000000
  0
ARC
  8
0
  10
-10.947696
  20
-17.075675
  30
0.000000
  40
0.125000
  50
135.000000
  51
-135.000000
  0
ARC
  8
0
  10
-10.947696
  20
-17.075675
  30
0.000000
  40
0.125000
  50
45.000000
  51
135.000000
  0
LINE
  8
0
  10
-10.859308
  20
-16.987286
  30
0.000000
  11
-10.484514
  21
-16.987286
  31
0.000000
  0
ARC
  8
0
  10
-5.646126
  20
-17.075675
  30
0.000000
  40
0.125000
  50
45.000000
  51
135.000000
  0
ARC
  8
0
  10
-5.646126
  20
-17.075675
  30
0.000000
  40
0.125000
  50
-45.000000
  51
45.000000
  0
LINE
  8
0
  10
-5.557738
  20
-17.164063
  30
0.000000
  11
-5.557738
  21
-18.779013
  31
0.000000
  0
ARC
  8
0
  10
-5.646126
  20
-18.867402
  30
0.000000
  40
0.125000
  50
-45.000000
  51
45.000000
  0
ARC
  8
0
  10
-5.646126
  20
-18.867402
  30
0.000000
  40
0.125000
  50
-135.000000
  51
-45.000000
  0
LINE
  8
0
  10
-5.734514
  20
-18.955790
  30
0.000000
  11
-6.109307
  21
-18.955790
  31
0.000000
  0
ARC
  8
0
  10
-6.197696
  20
-18.867402
  30
0.000000
  40
0.125000
  50
-135.000000
  51
-45.000000
  0
ARC
  8
0
  10
-6.197696
  20
-18.867402
  30
0.000000
  40
0.125000
  50
135.000000
  51
-135.000000
  0
LINE
  8
0
  10
-6.286084
  20
-18.779013
  30
0.000000
  11
-6.286084
  21
-17.164063
  31
0.000000
  0
ARC
  8
0
  10
-6.197696
  20
-17.075675
  30
0.000000
  40
0.125000
  50
135.000000
  51
-135.000000
  0
ARC
  8
0
  10
-6.197696
  20
-17.075675
  30
0.000000
  40
0.125000
  50
45.000000
  51
135.000000
  0
LINE
  8
0
  10
-6.109307
  20
-16.987286
  30
0.000000
  11
-5.734514
  21
-16.987286
  31
0.000000
  0
ARC
  8
0
  10
-43.921911
  20
14.856587
  30
0.000000
  40
0.125000
  50
-90.000000
  51
0.000000
  0
ARC
  8
0
  10
-43.921911
  20
14.856587
  30
0.000000
  40
0.125000
  50
180.000000
  51
-90.000000
  0
ARC
  8
0
  10
-43.921911
  20
14.856587
  30
0.000000
  40
0.125000
  50
90.000000
  51
180.000000
  0
ARC
  8
0
  10
-43.921911
  20
14.856587
  30
0.000000
  40
0.125000
  50
0.000000
  51
90.000000
  0
ARC
  8
0
  10
-29.671911
  20
14.856587
  30
0.000000
  40
0.125000
  50
-90.000000
  51
0.000000
  0
ARC
  8
0
  10
-29.671911
  20
14.856587
  30
0.000000
  40
0.125000
  50
180.000000
  51
-90.000000
  0
ARC
  8
0
  10
-29.671911
  20
14.856587
  30
0.000000
  40
0.125000
  50
90.000000
  51
180.000000
  0
ARC
  8
0
  10
-29.671911
  20
14.856587
  30
0.000000
  40
0.125000
  50
0.000000
  51
90.000000
  0
ARC
  8
0
  10
-15.421911
  20
14.856587
  30
0.000000
  40
0.125000
  50
-90.000000
  51
0.000000
  0
ARC
  8
0
  10
-15.421911
  20
14.856587
  30
0.000000
  40
0.125000
  50
180.000000
  51
-90.000000
  0
ARC
  8
0
  10
-15.421911
  20
14.856587
  30
0.000000
  40
0.125000
  50
90.000000
  51
180.000000
  0
ARC
  8
0
  10
-15.421911
  20
14.856587
  30
0.000000
  40
0.125000
  50
0.000000
  51
90.000000
  0
ARC
  8
0
  10
-1.171911
  20
14.856587
  30
0.000000
  40
0.125000
  50
-90.000000
  51
0.000000
  0
ARC
  8
0
  10
-1.171911
  20
14.856587
  30
0.000000
  40
0.125000
  50
180.000000
  51
-90.000000
  0
ARC
  8
0
  10
-1.171911
  20
14.856587
  30
0.000000
  40
0.125000
  50
90.000000
  51
180.000000
  0
ARC
  8
0
  10
-1.171911
  20
14.856587
  30
0.000000
  40
0.125000
  50
0.000000
  51
90.000000
  0
ARC
  8
0
  10
-43.921911
  20
2.919087
  30
0.000000
  40
0.125000
  50
-90.000000
  51
0.000000
  0
ARC
  8
0
  10
-43.921911
  20
2.919087
  30
0.000000
  40
0.125000
  50
180.000000
  51
-90.000000
  0
ARC
  8
0
  10
-43.921911
  20
2.919087
  30
0.000000
  40
0.125000
  50
90.000000
  51
180.000000
  0
ARC
  8
0
  10
-43.921911
  20
2.919087
  30
0.000000
  40
0.125000
  50
0.000000
  51
90.000000
  0
ARC
  8
0
  10
-29.671911
  20
2.919087
  30
0.000000
  40
0.125000
  50
-90.000000
  51
0.000000
  0
ARC
  8
0
  10
-29.671911
  20
2.919087
  30
0.000000
  40
0.125000
  50
180.000000
  51
-90.000000
  0
ARC
  8
0
  10
-29.671911
  20
2.919087
  30
0.000000
  40
0.125000
  50
90.000000
  51
180.000000
  0
ARC
  8
0
  10
-29.671911
  20
2.919087
  30
0.000000
  40
0.125000
  50
0.000000
  51
90.000000
  0
ARC
  8
0
  10
-15.421911
  20
2.919087
  30
0.000000
  40
0.125000
  50
-90.000000
  51
0.000000
  0
ARC
  8
0
  10
-15.421911
  20
2.919087
  30
0.000000
  40
0.125000
  50
180.000000
  51
-90.000000
  0
ARC
  8
0
  10
-15.421911
  20
2.919087
  30
0.000000
  40
0.125000
  50
90.000000
  51
180.000000
  0
ARC
  8
0
  10
-15.421911
  20
2.919087
  30
0.000000
  40
0.125000
  50
0.000000
  51
90.000000
  0
ARC
  8
0
  10
-1.171911
  20
2.919087
  30
0.000000
  40
0.125000
  50
-90.000000
  51
0.000000
  0
ARC
  8
0
  10
-1.171911
  20
2.919087
  30
0.000000
  40
0.125000
  50
180.000000
  51
-90.000000
  0
ARC
  8
0
  10
-1.171911
  20
2.919087
  30
0.000000
  40
0.125000
  50
90.000000
  51
180.000000
  0
ARC
  8
0
  10
-1.171911
  20
2.919087
  30
0.000000
  40
0.125000
  50
0.000000
  51
90.000000
  0
ARC
  8
0
  10
-43.921911
  20
-20.955913
  30
0.000000
  40
0.125000
  50
-90.000000
  51
0.000000
  0
ARC
  8
0
  10
-43.921911
  20
-20.955913
  30
0.000000
  40
0.125000
  50
180.000000
  51
-90.000000
  0
ARC
  8
0
  10
-43.921911
  20
-20.955913
  30
0.000000
  40
0.125000
  50
90.000000
  51
180.000000
  0
ARC
  8
0
  10
-43.921911
  20
-20.955913
  30
0.000000
  40
0.125000
  50
0.000000
  51
90.000000
  0
ARC
  8
0
  10
-29.671911
  20
-20.955913
  30
0.000000
  40
0.125000
  50
-90.000000
  51
0.000000
  0
ARC
  8
0
  10
-29.671911
  20
-20.955913
  30
0.000000
  40
0.125000
  50
180.000000
  51
-90.000000
  0
ARC
  8
0
  10
-29.671911
  20
-20.955913
  30
0.000000
  40
0.125000
  50
90.000000
  51
180.000000
  0
ARC
  8
0
  10
-29.671911
  20
-20.955913
  30
0.000000
  40
0.125000
  50
0.000000
  51
90.000000
  0
ARC
  8
0
  10
-15.421911
  20
-20.955913
  30
0.000000
  40
0.125000
  50
-90.000000
  51
0.000000
  0
ARC
  8
0
  10
-15.421911
  20
-20.955913
  30
0.000000
  40
0.125000
  50
180.000000
  51
-90.000000
  0
ARC
  8
0
  10
-15.421911
  20
-20.955913
  30
0.000000
  40
0.125000
  50
90.000000
  51
180.000000
  0
ARC
  8
0
  10
-15.421911
  20
-20.955913
  30
0.000000
  40
0.125000
  50
0.000000
  51
90.000000
  0
ARC
  8
0
  10
-1.171911
  20
-20.955913
  30
0.000000
  40
0.125000
  50
-90.000000
  51
0.000000
  0
ARC
  8
0
  10
-1.171911
  20
-20.955913
  30
0.000000
  40
0.125000
  50
180.000000
  51
-90.000000
  0
ARC
  8
0
  10
-1.171911
  20
-20.955913
  30
0.000000
  40
0.125000
  50
90.000000
  51
180.000000
  0
ARC
  8
0
  10
-1.171911
  20
-20.955913
  30
0.000000
  40
0.125000
  50
0.000000
  51
90.000000
  0
ARC
  8
0
  10
-43.921911
  20
-9.018413
  30
0.000000
  40
0.125000
  50
-90.000000
  51
0.000000
  0
ARC
  8
0
  10
-43.921911
  20
-9.018413
  30
0.000000
  40
0.125000
  50
180.000000
  51
-90.000000
  0
ARC
  8
0
  10
-43.921911
  20
-9.018413
  30
0.000000
  40
0.125000
  50
90.000000
  51
180.000000
  0
ARC
  8
0
  10
-43.921911
  20
-9.018413
  30
0.000000
  40
0.125000
  50
0.000000
  51
90.000000
  0
ARC
  8
0
  10
-29.671911
  20
-9.018413
  30
0.000000
  40
0.125000
  50
-90.000000
  51
0.000000
  0
ARC
  8
0
  10
-29.671911
  20
-9.018413
  30
0.000000
  40
0.125000
  50
180.000000
  51
-90.000000
  0
ARC
  8
0
  10
-29.671911
  20
-9.018413
  30
0.000000
  40
0.125000
  50
90.000000
  51
180.000000
  0
ARC
  8
0
  10
-29.671911
  20
-9.018413
  30
0.000000
  40
0.125000
  50
0.000000
  51
90.000000
  0
ARC
  8
0
  10
-15.421911
  20
-9.018413
  30
0.000000
  40
0.125000
  50
-90.000000
  51
0.000000
  0
ARC
  8
0
  10
-15.421911
  20
-9.018413
  30
0.000000
  40
0.125000
  50
180.000000
  51
-90.000000
  0
ARC
  8
0
  10
-15.421911
  20
-9.018413
  30
0.000000
  40
0.125000
  50
90.000000
  51
180.000000
  0
ARC
  8
0
  10
-15.421911
  20
-9.018413
  30
0.000000
  40
0.125000
  50
0.000000
  51
90.000000
  0
ARC
  8
0
  10
-1.171911
  20
-9.018413
  30
0.000000
  40
0.125000
  50
-90.000000
  51
0.000000
  0
ARC
  8
0
  10
-1.171911
  20
-9.018413
  30
0.000000
  40
0.125000
  50
180.000000
  51
-90.000000
  0
ARC
  8
0
  10
-1.171911
  20
-9.018413
  30
0.000000
  40
0.125000
  50
90.000000
  51
180.000000
  0
ARC
  8
0
  10
-1.171911
  20
-9.018413
  30
0.000000
  40
0.125000
  50
0.000000
  51
90.000000
  0
ENDSEC
  0
EOF
